<svg xmlns="http://www.w3.org/2000/svg" xmlns:xlink="http://www.w3.org/1999/xlink" width="1080" zoomAndPan="magnify" viewBox="0 0 810 809.999993" height="1080" preserveAspectRatio="xMidYMid meet" version="1.0"><rect x="-81" width="972" fill="rgb(100%, 100%, 100%)" y="-80.999999" height="971.999992" fill-opacity="1"/><rect x="-81" width="972" fill="rgb(100%, 100%, 100%)" y="-80.999999" height="971.999992" fill-opacity="1"/><rect x="-81" width="972" fill="rgb(100%, 100%, 100%)" y="-80.999999" height="971.999992" fill-opacity="1"/><rect x="-81" width="972" fill="rgb(100%, 100%, 100%)" y="-80.999999" height="971.999992" fill-opacity="1"/><path fill="rgb(45.489502%, 31.759644%, 66.668701%)" d="M 322.355469 730.191406 L 328.203125 724.347656 L 606.324219 446.226562 L 622.207031 430.339844 L 679.792969 372.757812 C 679.328125 371.082031 678.84375 369.382812 678.355469 367.707031 C 678.136719 366.957031 677.914062 366.226562 677.695312 365.5 C 676.679688 362.035156 675.597656 358.570312 674.472656 355.128906 C 673.835938 353.1875 673.171875 351.246094 672.488281 349.304688 C 669.773438 341.5625 666.773438 333.882812 663.488281 326.316406 L 597.078125 392.722656 L 241.496094 748.328125 L 208.289062 781.53125 C 214.765625 784.335938 221.308594 786.917969 227.90625 789.296875 C 230.488281 790.226562 233.046875 791.128906 235.628906 791.992188 C 236.753906 792.367188 237.855469 792.742188 238.980469 793.09375 C 241.671875 793.976562 244.363281 794.8125 247.078125 795.609375 C 249.617188 796.382812 252.175781 797.109375 254.734375 797.816406 L 322.355469 730.191406 " fill-opacity="1" fill-rule="nonzero"/><path fill="rgb(45.489502%, 31.759644%, 66.668701%)" d="M 595.46875 540.71875 L 691.417969 444.769531 C 691.152344 440.136719 690.824219 435.503906 690.382812 430.871094 C 690.160156 428.574219 689.917969 426.257812 689.652344 423.964844 C 689.125 419.332031 688.484375 414.722656 687.777344 410.132812 C 687.402344 407.835938 687.027344 405.542969 686.628906 403.25 C 685.8125 398.660156 684.910156 394.09375 683.917969 389.546875 L 641.445312 432.019531 L 606.898438 466.546875 L 271.523438 801.941406 C 280.636719 803.925781 289.792969 805.558594 299.015625 806.816406 C 301.308594 807.125 303.625 807.414062 305.917969 807.675781 C 312.847656 808.472656 319.796875 809.066406 326.746094 809.441406 L 595.46875 540.71875 " fill-opacity="1" fill-rule="nonzero"/><path fill="rgb(45.489502%, 31.759644%, 66.668701%)" d="M 677.496094 563.246094 L 445.222656 795.519531 C 463.488281 790.070312 481.382812 783.03125 498.722656 774.515625 C 501.8125 772.996094 504.878906 771.429688 507.925781 769.816406 C 512.710938 767.28125 517.453125 764.675781 522.132812 761.898438 C 537.398438 752.851562 552.136719 742.527344 566.167969 730.921875 C 571.773438 726.289062 577.289062 721.433594 582.648438 716.382812 C 585.339844 713.867188 588.011719 711.285156 590.636719 708.660156 C 609.015625 690.28125 624.898438 670.335938 638.292969 649.246094 C 641.027344 644.945312 643.609375 640.597656 646.125 636.207031 C 659.492188 612.929688 669.972656 588.441406 677.496094 563.246094 " fill-opacity="1" fill-rule="nonzero"/><path fill="rgb(45.489502%, 31.759644%, 66.668701%)" d="M 691.96875 465.132812 L 582.296875 574.808594 L 347.109375 809.992188 C 370.628906 809.90625 394.125 807.433594 417.226562 802.601562 L 684.578125 535.25 C 685.792969 529.488281 686.851562 523.6875 687.753906 517.863281 C 690.492188 500.410156 691.902344 482.785156 691.96875 465.132812 " fill-opacity="1" fill-rule="nonzero"/><path fill="rgb(45.489502%, 31.759644%, 66.668701%)" d="M 46.113281 420.921875 L 106.253906 360.777344 L 242.753906 224.277344 L 291.511719 175.535156 L 349.007812 118.042969 C 338.878906 117.953125 328.777344 118.332031 318.695312 119.117188 C 314.371094 119.457031 310.046875 119.847656 305.742188 120.351562 C 297.117188 121.351562 288.535156 122.671875 279.996094 124.320312 L 6.289062 398.027344 C 5.265625 403.34375 4.378906 408.664062 3.605469 414.023438 C 1.886719 425.847656 0.777344 437.761719 0.289062 449.699219 C 0.171875 452.589844 0.0898438 455.480469 0.0429688 458.371094 C 0 461.257812 -0.0117188 464.148438 0.0117188 467.039062 L 46.113281 420.929688 " fill-opacity="1" fill-rule="nonzero"/><path fill="rgb(45.489502%, 31.759644%, 66.668701%)" d="M 617.398438 249.40625 C 614.464844 245.722656 611.464844 242.101562 608.375 238.507812 C 604.625 234.183594 600.808594 229.878906 596.835938 225.710938 L 536.648438 285.875 L 167.851562 654.671875 L 107.667969 714.859375 C 110.398438 717.441406 113.15625 720 115.945312 722.472656 C 124.3125 729.929688 132.957031 736.921875 141.839844 743.429688 L 625.386719 259.863281 C 622.804688 256.332031 620.113281 252.871094 617.398438 249.40625 " fill-opacity="1" fill-rule="nonzero"/><path fill="rgb(45.489502%, 31.759644%, 66.668701%)" d="M 452.171875 134.65625 C 448.289062 133.40625 444.382812 132.230469 440.480469 131.121094 L 85.933594 485.664062 L 13.09375 558.492188 C 15.308594 566.324219 17.800781 574.09375 20.578125 581.769531 C 22.660156 587.527344 24.898438 593.242188 27.296875 598.914062 C 28.09375 600.808594 28.910156 602.683594 29.746094 604.582031 L 486.550781 147.753906 C 475.300781 142.757812 463.804688 138.390625 452.179688 134.644531 " fill-opacity="1" fill-rule="nonzero"/><path fill="rgb(45.489502%, 31.759644%, 66.668701%)" d="M 526.257812 275.351562 L 542.652344 258.980469 L 586.402344 215.21875 C 585.144531 214 583.839844 212.828125 582.582031 211.636719 C 572.921875 202.566406 562.902344 194.125 552.511719 186.375 L 506.753906 232.132812 L 491.507812 247.375 L 129.351562 609.53125 L 98.847656 640.046875 L 68.351562 670.535156 C 72.734375 676.40625 77.328125 682.183594 82.136719 687.832031 C 84.539062 690.65625 86.996094 693.460938 89.503906 696.21875 C 92.011719 698.996094 94.574219 701.734375 97.1875 704.425781 L 526.261719 275.351562 " fill-opacity="1" fill-rule="nonzero"/><path fill="rgb(45.489502%, 31.759644%, 66.668701%)" d="M 592.027344 376.882812 L 656.890625 312.019531 C 654.398438 306.878906 651.75 301.828125 648.96875 296.796875 C 646.191406 291.789062 643.300781 286.824219 640.253906 281.902344 C 638.226562 278.640625 636.128906 275.394531 633.988281 272.175781 L 572.257812 333.925781 L 154.152344 752.011719 C 167.015625 760.59375 180.324219 768.25 193.984375 774.914062 L 592.039062 376.882812 " fill-opacity="1" fill-rule="nonzero"/><path fill="rgb(45.489502%, 31.759644%, 66.668701%)" d="M 21.601562 343.546875 C 18.292969 352.480469 15.324219 361.507812 12.777344 370.617188 L 252.597656 130.820312 C 221.425781 139.507812 191.25 152.652344 163.050781 170.238281 C 153.652344 176.097656 144.472656 182.453125 135.550781 189.308594 C 123.65625 198.445312 112.214844 208.457031 101.324219 219.347656 C 70.539062 250.132812 46.8125 285.28125 30.0625 322.808594 C 27.976562 327.484375 25.996094 332.183594 24.128906 336.929688 C 23.261719 339.132812 22.421875 341.339844 21.605469 343.546875 " fill-opacity="1" fill-rule="nonzero"/><path fill="rgb(45.489502%, 31.759644%, 66.668701%)" d="M 85.046875 465.640625 L 385.714844 164.972656 L 423.816406 126.855469 C 417.066406 125.304688 410.269531 123.953125 403.453125 122.808594 C 394.363281 121.285156 385.207031 120.117188 376.03125 119.324219 C 373.734375 119.125 371.441406 118.949219 369.144531 118.792969 L 0.769531 487.171875 C 1.070312 491.78125 1.464844 496.371094 1.957031 500.9375 C 2.199219 503.234375 2.46875 505.507812 2.757812 507.800781 C 3.339844 512.367188 4.011719 516.933594 4.773438 521.480469 C 5.917969 528.296875 7.269531 535.09375 8.824219 541.863281 L 85.042969 465.640625 " fill-opacity="1" fill-rule="nonzero"/><path fill="rgb(45.489502%, 31.759644%, 66.668701%)" d="M 90.457031 627.515625 L 478.691406 239.300781 L 540.289062 177.679688 C 538.703125 176.59375 537.089844 175.523438 535.480469 174.46875 C 533.871094 173.414062 532.257812 172.371094 530.648438 171.34375 C 526.457031 168.703125 522.242188 166.167969 517.984375 163.722656 C 512.316406 160.46875 506.578125 157.378906 500.777344 154.472656 L 466.050781 189.1875 L 67.664062 587.59375 L 36.445312 618.808594 C 40.6875 627.28125 45.300781 635.621094 50.28125 643.785156 C 52.277344 647.074219 54.328125 650.316406 56.441406 653.515625 C 57.496094 655.125 58.566406 656.734375 59.652344 658.324219 L 90.457031 627.523438 " fill-opacity="1" fill-rule="nonzero"/><path fill="rgb(100%, 100%, 100%)" d="M 729.34375 72.285156 L 360.390625 441.234375 C 363.789062 444.789062 367.320312 448.25 370.914062 451.605469 L 739.714844 82.808594 C 736.359375 79.203125 732.894531 75.6875 729.34375 72.277344 " fill-opacity="1" fill-rule="nonzero"/><path fill="rgb(100%, 100%, 100%)" d="M 681.753906 36.222656 L 324.320312 393.65625 C 326.902344 398.003906 329.59375 402.285156 332.417969 406.476562 L 694.574219 44.320312 C 690.382812 41.496094 686.101562 38.808594 681.753906 36.230469 " fill-opacity="1" fill-rule="nonzero"/><path fill="rgb(100%, 100%, 100%)" d="M 810.003906 260.945312 C 810.003906 254.964844 809.785156 249.03125 809.386719 243.164062 L 531.265625 521.28125 C 537.136719 521.679688 543.070312 521.902344 549.046875 521.902344 C 549.886719 521.902344 550.746094 521.878906 551.585938 521.855469 L 809.960938 263.480469 C 809.984375 262.644531 810.003906 261.804688 810.003906 260.945312 " fill-opacity="1" fill-rule="nonzero"/><path fill="rgb(100%, 100%, 100%)" d="M 795.089844 173.824219 L 461.921875 506.992188 C 467.128906 508.820312 472.402344 510.519531 477.765625 512.042969 L 800.140625 189.664062 C 798.621094 184.316406 796.921875 179.035156 795.089844 173.828125 " fill-opacity="1" fill-rule="nonzero"/><path fill="rgb(100%, 100%, 100%)" d="M 550.679688 0.0117188 L 288.113281 262.578125 C 288.160156 269.308594 288.445312 275.992188 288.996094 282.609375 L 570.714844 0.894531 C 564.09375 0.347656 557.410156 0.0507812 550.679688 0.0117188 " fill-opacity="1" fill-rule="nonzero"/><path fill="rgb(100%, 100%, 100%)" d="M 445.816406 21.21875 L 309.316406 157.722656 C 304.816406 168.191406 300.957031 179.007812 297.824219 190.132812 L 478.226562 9.722656 C 467.109375 12.851562 456.296875 16.707031 445.816406 21.21875 " fill-opacity="1" fill-rule="nonzero"/><path fill="rgb(100%, 100%, 100%)" d="M 623.53125 10.796875 L 298.902344 335.425781 C 300.46875 340.742188 302.210938 345.972656 304.109375 351.132812 L 639.242188 16.003906 C 634.078125 14.097656 628.828125 12.367188 623.53125 10.792969 " fill-opacity="1" fill-rule="nonzero"/><path fill="rgb(100%, 100%, 100%)" d="M 798.53125 337.65625 L 625.761719 510.429688 C 637.496094 506.832031 648.882812 502.398438 659.847656 497.257812 L 785.359375 371.742188 C 790.5 360.777344 794.914062 349.394531 798.53125 337.65625 " fill-opacity="1" fill-rule="nonzero"/><path fill="rgb(100%, 100%, 100%)" d="M 767.335938 117.925781 L 406.039062 479.222656 C 410.253906 482.003906 414.554688 484.671875 418.96875 487.210938 L 775.320312 130.855469 C 772.785156 126.457031 770.117188 122.148438 767.335938 117.917969 " fill-opacity="1" fill-rule="nonzero"/></svg>