<svg xmlns="http://www.w3.org/2000/svg" xmlns:xlink="http://www.w3.org/1999/xlink" width="500" zoomAndPan="magnify" viewBox="0 0 375 374.999991" height="500" preserveAspectRatio="xMidYMid meet" version="1.0"><path fill="rgb(45.489502%, 31.759644%, 66.668701%)" d="M 149.238281 338.050781 L 151.945312 335.34375 L 280.707031 206.585938 L 288.058594 199.230469 L 314.71875 172.574219 C 314.503906 171.796875 314.277344 171.011719 314.054688 170.234375 C 313.953125 169.886719 313.851562 169.550781 313.746094 169.210938 C 313.277344 167.609375 312.777344 166.003906 312.257812 164.410156 C 311.960938 163.511719 311.652344 162.613281 311.335938 161.714844 C 310.082031 158.128906 308.691406 154.574219 307.167969 151.074219 L 276.425781 181.816406 L 111.804688 346.449219 L 96.429688 361.820312 C 99.429688 363.117188 102.457031 364.3125 105.511719 365.417969 C 106.707031 365.84375 107.890625 366.265625 109.085938 366.664062 C 109.609375 366.835938 110.117188 367.007812 110.640625 367.171875 C 111.886719 367.582031 113.132812 367.96875 114.386719 368.335938 C 115.5625 368.695312 116.746094 369.03125 117.933594 369.359375 L 149.238281 338.050781 " fill-opacity="1" fill-rule="nonzero"/><path fill="rgb(45.489502%, 31.759644%, 66.668701%)" d="M 275.679688 250.332031 L 320.101562 205.910156 C 319.976562 203.765625 319.824219 201.621094 319.621094 199.476562 C 319.519531 198.414062 319.40625 197.34375 319.285156 196.28125 C 319.039062 194.136719 318.742188 192 318.414062 189.875 C 318.242188 188.8125 318.070312 187.75 317.882812 186.6875 C 317.507812 184.5625 317.085938 182.449219 316.628906 180.347656 L 296.964844 200.007812 L 280.96875 215.992188 L 125.707031 371.269531 C 129.925781 372.1875 134.164062 372.945312 138.433594 373.527344 C 139.496094 373.667969 140.566406 373.800781 141.628906 373.925781 C 144.835938 374.292969 148.054688 374.566406 151.269531 374.742188 L 162.375 363.640625 L 275.679688 250.332031 " fill-opacity="1" fill-rule="nonzero"/><path fill="rgb(45.489502%, 31.759644%, 66.668701%)" d="M 313.65625 260.761719 L 206.121094 368.296875 C 214.578125 365.773438 222.863281 362.515625 230.890625 358.574219 C 232.320312 357.867188 233.742188 357.144531 235.148438 356.398438 C 237.367188 355.222656 239.5625 354.015625 241.726562 352.730469 C 248.796875 348.542969 255.617188 343.761719 262.117188 338.390625 C 264.710938 336.246094 267.261719 333.996094 269.746094 331.660156 C 270.992188 330.492188 272.226562 329.300781 273.441406 328.082031 C 281.953125 319.574219 289.304688 310.339844 295.503906 300.578125 C 296.773438 298.585938 297.96875 296.574219 299.132812 294.539062 C 305.320312 283.765625 310.171875 272.425781 313.65625 260.761719 " fill-opacity="1" fill-rule="nonzero"/><path fill="rgb(45.489502%, 31.759644%, 66.668701%)" d="M 320.355469 215.339844 L 160.699219 374.996094 C 171.585938 374.957031 182.464844 373.8125 193.160156 371.574219 L 316.933594 247.800781 C 317.496094 245.132812 317.988281 242.449219 318.40625 239.75 C 319.671875 231.671875 320.324219 223.511719 320.355469 215.339844 " fill-opacity="1" fill-rule="nonzero"/><path fill="rgb(45.489502%, 31.759644%, 66.668701%)" d="M 21.347656 194.871094 L 112.386719 103.832031 L 134.960938 81.265625 L 161.578125 54.648438 C 156.890625 54.609375 152.210938 54.78125 147.542969 55.148438 C 145.542969 55.304688 143.539062 55.484375 141.546875 55.71875 C 137.554688 56.179688 133.582031 56.792969 129.628906 57.554688 L 2.910156 184.273438 C 2.4375 186.734375 2.027344 189.195312 1.667969 191.675781 C 0.875 197.152344 0.359375 202.667969 0.132812 208.195312 C 0.0820312 209.53125 0.0429688 210.871094 0.0195312 212.207031 C 0 213.546875 -0.00390625 214.882812 0.0078125 216.222656 L 21.347656 194.875 " fill-opacity="1" fill-rule="nonzero"/><path fill="rgb(45.489502%, 31.759644%, 66.668701%)" d="M 285.832031 115.464844 C 284.472656 113.761719 283.085938 112.085938 281.65625 110.421875 C 279.917969 108.417969 278.152344 106.425781 276.3125 104.496094 L 248.449219 132.351562 L 49.847656 330.953125 C 51.109375 332.148438 52.386719 333.332031 53.679688 334.476562 C 57.550781 337.929688 61.554688 341.167969 65.667969 344.179688 L 289.53125 120.308594 C 288.335938 118.671875 287.089844 117.070312 285.832031 115.464844 " fill-opacity="1" fill-rule="nonzero"/><path fill="rgb(45.489502%, 31.759644%, 66.668701%)" d="M 209.339844 62.339844 C 207.542969 61.761719 205.734375 61.21875 203.925781 60.703125 L 39.785156 224.84375 L 6.0625 258.5625 C 7.085938 262.1875 8.242188 265.785156 9.527344 269.335938 C 10.488281 272.003906 11.527344 274.648438 12.636719 277.273438 C 13.007812 278.152344 13.382812 279.019531 13.773438 279.898438 L 225.253906 68.40625 C 220.046875 66.089844 214.726562 64.070312 209.34375 62.335938 " fill-opacity="1" fill-rule="nonzero"/><path fill="rgb(45.489502%, 31.759644%, 66.668701%)" d="M 243.636719 127.476562 L 251.226562 119.898438 L 271.480469 99.640625 C 270.898438 99.074219 270.296875 98.53125 269.714844 97.980469 C 265.242188 93.78125 260.605469 89.871094 255.792969 86.285156 L 31.644531 310.433594 C 33.671875 313.148438 35.800781 315.828125 38.027344 318.441406 C 39.136719 319.75 40.277344 321.046875 41.4375 322.324219 C 42.597656 323.609375 43.785156 324.875 44.996094 326.121094 L 243.640625 127.476562 " fill-opacity="1" fill-rule="nonzero"/><path fill="rgb(45.489502%, 31.759644%, 66.668701%)" d="M 274.085938 174.484375 L 304.117188 144.453125 C 302.960938 142.074219 301.734375 139.734375 300.449219 137.40625 C 299.160156 135.085938 297.824219 132.789062 296.414062 130.511719 C 295.476562 129 294.503906 127.496094 293.511719 126.007812 L 264.933594 154.597656 L 71.367188 348.152344 C 77.320312 352.128906 83.484375 355.671875 89.808594 358.757812 L 274.089844 174.484375 " fill-opacity="1" fill-rule="nonzero"/><path fill="rgb(45.489502%, 31.759644%, 66.668701%)" d="M 10 159.050781 C 8.46875 163.1875 7.09375 167.363281 5.917969 171.582031 L 116.945312 60.566406 C 102.511719 64.585938 88.542969 70.671875 75.488281 78.8125 C 71.132812 81.527344 66.886719 84.46875 62.753906 87.640625 C 57.246094 91.871094 51.953125 96.507812 46.910156 101.550781 C 32.65625 115.804688 21.671875 132.074219 13.917969 149.449219 C 12.953125 151.613281 12.035156 153.789062 11.171875 155.984375 C 10.769531 157.007812 10.378906 158.027344 10.003906 159.050781 " fill-opacity="1" fill-rule="nonzero"/><path fill="rgb(45.489502%, 31.759644%, 66.668701%)" d="M 39.375 215.574219 L 178.570312 76.375 L 196.210938 58.730469 C 193.085938 58.011719 189.941406 57.386719 186.785156 56.855469 C 182.574219 56.148438 178.335938 55.609375 174.085938 55.242188 C 173.027344 55.148438 171.964844 55.070312 170.902344 54.996094 L 0.355469 225.542969 C 0.496094 227.675781 0.679688 229.800781 0.90625 231.917969 C 1.019531 232.976562 1.144531 234.03125 1.277344 235.09375 C 1.546875 237.207031 1.855469 239.320312 2.210938 241.425781 C 2.742188 244.582031 3.367188 247.726562 4.085938 250.863281 L 39.371094 215.574219 " fill-opacity="1" fill-rule="nonzero"/><path fill="rgb(45.489502%, 31.759644%, 66.668701%)" d="M 41.878906 290.515625 L 221.617188 110.789062 L 250.132812 82.257812 C 249.398438 81.757812 248.652344 81.261719 247.90625 80.773438 C 247.160156 80.285156 246.417969 79.800781 245.671875 79.324219 C 243.730469 78.101562 241.777344 76.929688 239.808594 75.796875 C 237.183594 74.292969 234.527344 72.859375 231.839844 71.515625 L 215.761719 87.585938 L 31.328125 272.035156 L 16.871094 286.484375 C 18.835938 290.410156 20.972656 294.269531 23.277344 298.046875 C 24.203125 299.570312 25.152344 301.070312 26.128906 302.554688 C 26.617188 303.296875 27.113281 304.042969 27.617188 304.78125 L 41.878906 290.519531 " fill-opacity="1" fill-rule="nonzero"/><path fill="rgb(65.098572%, 65.098572%, 65.098572%)" d="M 337.660156 33.464844 L 166.847656 204.277344 C 168.421875 205.921875 170.054688 207.523438 171.71875 209.078125 L 342.460938 38.335938 C 340.90625 36.667969 339.304688 35.039062 337.660156 33.460938 " fill-opacity="1" fill-rule="nonzero"/><path fill="rgb(65.098572%, 65.098572%, 65.098572%)" d="M 315.628906 16.769531 L 150.148438 182.25 C 151.34375 184.261719 152.589844 186.242188 153.898438 188.183594 L 321.5625 20.519531 C 319.621094 19.210938 317.640625 17.964844 315.628906 16.773438 " fill-opacity="1" fill-rule="nonzero"/><path fill="rgb(65.098572%, 65.098572%, 65.098572%)" d="M 375.003906 120.808594 C 375.003906 118.039062 374.898438 115.292969 374.714844 112.574219 L 245.957031 241.335938 C 248.671875 241.519531 251.421875 241.621094 254.1875 241.621094 C 254.578125 241.621094 254.976562 241.609375 255.363281 241.601562 L 374.980469 121.980469 C 374.992188 121.59375 375.003906 121.207031 375.003906 120.808594 " fill-opacity="1" fill-rule="nonzero"/><path fill="rgb(65.098572%, 65.098572%, 65.098572%)" d="M 368.097656 80.472656 L 213.855469 234.71875 C 216.265625 235.566406 218.707031 236.351562 221.1875 237.058594 L 370.4375 87.808594 C 369.730469 85.332031 368.945312 82.886719 368.097656 80.476562 " fill-opacity="1" fill-rule="nonzero"/><path fill="rgb(65.098572%, 65.098572%, 65.098572%)" d="M 254.945312 0.00390625 L 133.386719 121.5625 C 133.40625 124.679688 133.539062 127.773438 133.796875 130.839844 L 264.21875 0.414062 C 261.15625 0.160156 258.058594 0.0234375 254.945312 0.0078125 " fill-opacity="1" fill-rule="nonzero"/><path fill="rgb(65.098572%, 65.098572%, 65.098572%)" d="M 206.398438 9.824219 L 143.203125 73.019531 C 141.117188 77.867188 139.332031 82.875 137.878906 88.023438 L 221.402344 4.5 C 216.253906 5.949219 211.25 7.734375 206.398438 9.824219 " fill-opacity="1" fill-rule="nonzero"/><path fill="rgb(65.098572%, 65.098572%, 65.098572%)" d="M 288.671875 5 L 138.382812 155.289062 C 139.105469 157.75 139.914062 160.171875 140.792969 162.5625 L 295.945312 7.410156 C 293.554688 6.527344 291.125 5.726562 288.671875 4.996094 " fill-opacity="1" fill-rule="nonzero"/><path fill="rgb(65.098572%, 65.098572%, 65.098572%)" d="M 369.691406 156.324219 L 289.703125 236.308594 C 295.136719 234.644531 300.40625 232.589844 305.484375 230.210938 L 363.59375 172.101562 C 365.972656 167.027344 368.015625 161.757812 369.691406 156.324219 " fill-opacity="1" fill-rule="nonzero"/><path fill="rgb(65.098572%, 65.098572%, 65.098572%)" d="M 355.246094 54.59375 L 187.980469 221.863281 C 189.933594 223.148438 191.921875 224.386719 193.964844 225.558594 L 358.945312 60.582031 C 357.769531 58.542969 356.535156 56.550781 355.246094 54.589844 " fill-opacity="1" fill-rule="nonzero"/></svg>