<svg xmlns="http://www.w3.org/2000/svg" xmlns:xlink="http://www.w3.org/1999/xlink" width="1080" zoomAndPan="magnify" viewBox="0 0 810 809.999993" height="1080" preserveAspectRatio="xMidYMid meet" version="1.0"><defs><clipPath id="id1"><path d="M 354 172.21875 L 619 172.21875 L 619 436 L 354 436 Z M 354 172.21875 " clip-rule="nonzero"/></clipPath><clipPath id="id2"><path d="M 264 427 L 479 427 L 479 640.96875 L 264 640.96875 Z M 264 427 " clip-rule="nonzero"/></clipPath></defs><path fill="#7451aa" d="M 63.554688 514.71875 C 95.015625 458.324219 138.082031 381.105469 216.09375 355.675781 C 375.714844 303.625 608.660156 491.988281 587.238281 620.546875 C 567.578125 738.324219 338.484375 781.386719 296.578125 789.289062 C 238.339844 800.226562 68.5 832.167969 15.46875 749.21875 C -28.726562 680.128906 32.769531 569.84375 63.554688 514.71875 Z M 63.554688 514.71875 " fill-opacity="1" fill-rule="nonzero"/><path fill="#311653" d="M 224.445312 168.886719 C 255.90625 112.488281 298.976562 35.269531 376.984375 9.84375 C 536.605469 -42.210938 769.550781 146.15625 748.128906 274.714844 C 728.46875 392.488281 499.378906 435.554688 457.46875 443.457031 C 399.234375 454.390625 314.292969 422.933594 261.296875 339.988281 C 217.144531 270.894531 193.699219 224.046875 224.445312 168.886719 Z M 224.445312 168.886719 " fill-opacity="1" fill-rule="nonzero"/><path fill="#ffb3d2" d="M 575.140625 337.816406 C 581.957031 303.289062 615.777344 264.941406 658.359375 251.046875 C 745.394531 222.660156 820.523438 301.378906 808.839844 371.480469 C 798.128906 435.742188 725.097656 483.261719 702.253906 487.53125 C 670.492188 493.523438 624.164062 476.335938 595.253906 431.097656 C 571.132812 393.460938 568.101562 373.429688 575.140625 337.816406 Z M 575.140625 337.816406 " fill-opacity="1" fill-rule="nonzero"/><path fill="#dfddd0" d="M 486.703125 362.988281 C 453.992188 362.988281 427.464844 336.488281 427.464844 303.808594 C 427.464844 271.128906 453.992188 244.625 486.703125 244.625 C 519.414062 244.625 545.941406 271.128906 545.941406 303.808594 C 545.941406 336.488281 519.414062 362.988281 486.703125 362.988281 Z M 602.433594 279.195312 L 587.945312 279.195312 C 585.386719 268.640625 581.234375 258.683594 575.722656 249.652344 L 585.941406 239.441406 C 589.953125 235.453125 589.953125 228.957031 585.941406 224.96875 L 565.59375 204.640625 C 561.605469 200.65625 555.121094 200.65625 551.132812 204.640625 L 540.890625 214.875 C 531.847656 209.367188 521.90625 205.195312 511.316406 202.636719 L 511.316406 188.164062 C 511.316406 182.542969 506.726562 177.957031 501.074219 177.957031 L 472.308594 177.957031 C 466.65625 177.957031 462.066406 182.542969 462.066406 188.164062 L 462.066406 202.636719 C 451.503906 205.195312 441.539062 209.367188 432.496094 214.875 L 422.277344 204.640625 C 418.285156 200.65625 411.804688 200.65625 407.789062 204.640625 L 387.445312 224.96875 C 383.453125 228.957031 383.453125 235.453125 387.445312 239.441406 L 397.6875 249.652344 C 392.171875 258.683594 387.996094 268.640625 385.4375 279.195312 L 370.972656 279.195312 C 365.324219 279.195312 360.730469 283.78125 360.730469 289.425781 L 360.730469 318.164062 C 360.730469 323.8125 365.324219 328.398438 370.972656 328.398438 L 385.4375 328.398438 C 387.996094 338.976562 392.171875 348.910156 397.6875 357.941406 L 387.445312 368.175781 C 383.453125 372.160156 383.453125 378.636719 387.445312 382.625 L 407.789062 402.949219 C 411.804688 406.9375 418.285156 406.9375 422.277344 402.949219 L 432.496094 392.742188 C 441.539062 398.25 451.503906 402.398438 462.066406 404.957031 L 462.066406 419.429688 C 462.066406 425.074219 466.65625 429.660156 472.308594 429.660156 L 501.074219 429.660156 C 506.726562 429.660156 511.316406 425.074219 511.316406 419.429688 L 511.316406 404.957031 C 521.90625 402.398438 531.847656 398.25 540.890625 392.742188 L 551.132812 402.949219 C 555.121094 406.9375 561.605469 406.9375 565.59375 402.949219 L 585.941406 382.625 C 589.953125 378.636719 589.953125 372.160156 585.941406 368.175781 L 575.722656 357.941406 C 581.234375 348.910156 585.386719 338.976562 587.945312 328.398438 L 602.433594 328.398438 C 608.085938 328.398438 612.675781 323.8125 612.675781 318.164062 L 612.675781 289.425781 C 612.675781 283.78125 608.085938 279.195312 602.433594 279.195312 " fill-opacity="1" fill-rule="nonzero"/><g clip-path="url(#id1)"><path fill="#192646" d="M 486.703125 357.226562 C 479.449219 357.226562 472.515625 355.828125 465.894531 353.03125 C 459.5 350.328125 453.832031 346.511719 448.898438 341.578125 C 443.960938 336.648438 440.140625 330.988281 437.433594 324.597656 C 434.632812 317.984375 433.234375 311.054688 433.234375 303.808594 C 433.234375 296.5625 434.632812 289.632812 437.433594 283.019531 C 440.140625 276.628906 443.960938 270.96875 448.898438 266.035156 C 453.832031 261.105469 459.5 257.289062 465.894531 254.585938 C 472.515625 251.789062 479.449219 250.386719 486.703125 250.386719 C 493.957031 250.386719 500.894531 251.789062 507.511719 254.585938 C 513.90625 257.289062 519.574219 261.105469 524.511719 266.035156 C 529.445312 270.96875 533.269531 276.628906 535.972656 283.019531 C 538.773438 289.632812 540.175781 296.5625 540.175781 303.808594 C 540.175781 310.371094 539.019531 316.695312 536.707031 322.769531 C 534.472656 328.644531 531.289062 333.964844 527.152344 338.742188 C 523.042969 343.488281 518.253906 347.390625 512.785156 350.449219 C 507.195312 353.578125 501.238281 355.628906 494.910156 356.601562 C 494.535156 356.660156 494.171875 356.753906 493.816406 356.882812 C 493.460938 357.011719 493.121094 357.175781 492.796875 357.371094 C 492.472656 357.570312 492.171875 357.792969 491.890625 358.050781 C 491.613281 358.304688 491.359375 358.585938 491.136719 358.890625 C 490.914062 359.195312 490.722656 359.519531 490.5625 359.863281 C 490.402344 360.207031 490.277344 360.5625 490.1875 360.929688 C 490.097656 361.296875 490.042969 361.667969 490.027344 362.046875 C 490.011719 362.425781 490.03125 362.800781 490.089844 363.175781 C 490.144531 363.546875 490.238281 363.914062 490.367188 364.269531 C 490.5 364.625 490.660156 364.964844 490.859375 365.285156 C 491.054688 365.609375 491.28125 365.910156 491.535156 366.191406 C 491.792969 366.46875 492.074219 366.71875 492.378906 366.945312 C 492.683594 367.167969 493.007812 367.359375 493.351562 367.519531 C 493.695312 367.679688 494.050781 367.804688 494.417969 367.894531 C 494.785156 367.984375 495.160156 368.039062 495.535156 368.054688 C 495.914062 368.070312 496.292969 368.050781 496.664062 367.992188 C 504.367188 366.808594 511.621094 364.3125 518.421875 360.503906 C 525.066406 356.789062 530.882812 352.046875 535.875 346.28125 C 540.902344 340.480469 544.773438 334.007812 547.488281 326.863281 C 550.300781 319.46875 551.707031 311.78125 551.707031 303.808594 C 551.707031 295.003906 550.003906 286.578125 546.597656 278.53125 C 543.304688 270.761719 538.664062 263.878906 532.667969 257.890625 C 526.667969 251.898438 519.78125 247.257812 512.003906 243.972656 C 503.949219 240.566406 495.515625 238.867188 486.703125 238.867188 C 477.890625 238.867188 469.457031 240.566406 461.402344 243.972656 C 453.625 247.257812 446.738281 251.898438 440.742188 257.890625 C 434.746094 263.878906 430.101562 270.761719 426.8125 278.53125 C 423.402344 286.578125 421.699219 295.003906 421.699219 303.808594 C 421.699219 312.613281 423.402344 321.039062 426.8125 329.085938 C 430.101562 336.855469 434.746094 343.738281 440.742188 349.726562 C 446.738281 355.71875 453.625 360.355469 461.402344 363.644531 C 469.457031 367.050781 477.890625 368.75 486.703125 368.75 C 487.082031 368.75 487.457031 368.714844 487.828125 368.640625 C 488.199219 368.566406 488.558594 368.457031 488.910156 368.3125 C 489.261719 368.167969 489.59375 367.992188 489.90625 367.78125 C 490.222656 367.570312 490.511719 367.332031 490.78125 367.0625 C 491.050781 366.796875 491.289062 366.503906 491.5 366.191406 C 491.707031 365.875 491.886719 365.542969 492.03125 365.195312 C 492.175781 364.84375 492.285156 364.484375 492.359375 364.113281 C 492.433594 363.742188 492.46875 363.367188 492.46875 362.988281 C 492.46875 362.613281 492.433594 362.238281 492.359375 361.867188 C 492.285156 361.496094 492.175781 361.132812 492.03125 360.785156 C 491.886719 360.433594 491.707031 360.101562 491.5 359.789062 C 491.289062 359.472656 491.050781 359.183594 490.78125 358.914062 C 490.511719 358.648438 490.222656 358.410156 489.90625 358.199219 C 489.59375 357.988281 489.261719 357.8125 488.910156 357.667969 C 488.558594 357.523438 488.199219 357.414062 487.828125 357.339844 C 487.457031 357.265625 487.082031 357.226562 486.703125 357.226562 Z M 358.992188 278.824219 C 356.308594 281.847656 354.964844 285.382812 354.964844 289.425781 L 354.964844 318.164062 C 354.964844 322.578125 356.527344 326.347656 359.65625 329.472656 C 362.78125 332.597656 366.554688 334.160156 370.972656 334.160156 L 385.4375 334.160156 L 385.4375 328.398438 L 379.832031 329.753906 C 382.507812 340.804688 386.816406 351.199219 392.761719 360.941406 L 397.6875 357.941406 L 393.609375 353.867188 L 383.367188 364.101562 C 380.246094 367.21875 378.683594 370.984375 378.683594 375.398438 C 378.683594 379.8125 380.246094 383.578125 383.367188 386.699219 L 403.710938 407.023438 C 406.851562 410.144531 410.628906 411.703125 415.042969 411.703125 C 419.460938 411.703125 423.234375 410.144531 426.355469 407.023438 L 436.574219 396.816406 L 432.496094 392.742188 L 429.492188 397.660156 C 439.1875 403.566406 449.59375 407.863281 460.710938 410.554688 L 462.066406 404.957031 L 456.300781 404.957031 L 456.300781 419.429688 C 456.300781 423.84375 457.863281 427.613281 460.992188 430.734375 C 464.117188 433.859375 467.890625 435.421875 472.308594 435.421875 L 501.074219 435.421875 C 505.492188 435.421875 509.265625 433.859375 512.394531 430.734375 C 515.519531 427.613281 517.082031 423.84375 517.082031 419.429688 L 517.082031 404.957031 L 511.316406 404.957031 L 512.671875 410.554688 C 523.777344 407.875 534.183594 403.574219 543.890625 397.660156 L 540.890625 392.742188 L 536.816406 396.820312 L 547.058594 407.03125 C 549.25 409.21875 551.859375 410.652344 554.886719 411.320312 C 555.257812 411.402344 555.628906 411.449219 556.007812 411.457031 C 556.386719 411.464844 556.761719 411.4375 557.136719 411.371094 C 557.507812 411.304688 557.871094 411.203125 558.222656 411.066406 C 558.578125 410.929688 558.914062 410.761719 559.234375 410.558594 C 559.550781 410.355469 559.847656 410.121094 560.121094 409.859375 C 560.394531 409.597656 560.640625 409.3125 560.859375 409.003906 C 561.074219 408.691406 561.261719 408.363281 561.414062 408.019531 C 561.566406 407.671875 561.683594 407.316406 561.765625 406.945312 C 561.847656 406.574219 561.890625 406.203125 561.902344 405.824219 C 561.910156 405.445312 561.878906 405.070312 561.816406 404.699219 C 561.75 404.324219 561.648438 403.960938 561.511719 403.609375 C 561.375 403.257812 561.203125 402.921875 561 402.601562 C 560.796875 402.285156 560.5625 401.988281 560.300781 401.714844 C 560.039062 401.441406 559.753906 401.195312 559.445312 400.976562 C 559.132812 400.761719 558.804688 400.578125 558.457031 400.425781 C 558.113281 400.273438 557.753906 400.15625 557.382812 400.074219 C 556.546875 399.886719 555.820312 399.488281 555.203125 398.871094 L 544.960938 388.664062 C 544.503906 388.207031 543.984375 387.839844 543.40625 387.558594 C 542.824219 387.277344 542.210938 387.097656 541.570312 387.019531 C 540.929688 386.945312 540.292969 386.976562 539.660156 387.113281 C 539.03125 387.25 538.4375 387.488281 537.886719 387.824219 C 529.203125 393.109375 519.894531 396.957031 509.960938 399.355469 C 509.332031 399.507812 508.746094 399.757812 508.203125 400.105469 C 507.65625 400.457031 507.183594 400.886719 506.785156 401.394531 C 506.386719 401.902344 506.078125 402.460938 505.867188 403.070312 C 505.65625 403.679688 505.550781 404.308594 505.550781 404.957031 L 505.550781 419.429688 C 505.550781 420.660156 505.113281 421.714844 504.238281 422.589844 C 503.363281 423.460938 502.308594 423.898438 501.074219 423.898438 L 472.308594 423.898438 C 471.078125 423.898438 470.023438 423.460938 469.148438 422.589844 C 468.273438 421.714844 467.835938 420.660156 467.835938 419.429688 L 467.835938 404.957031 C 467.835938 404.308594 467.730469 403.683594 467.515625 403.070312 C 467.304688 402.460938 467 401.902344 466.601562 401.394531 C 466.199219 400.886719 465.730469 400.457031 465.183594 400.109375 C 464.640625 399.757812 464.054688 399.507812 463.425781 399.355469 C 453.476562 396.945312 444.164062 393.101562 435.496094 387.824219 C 434.945312 387.484375 434.351562 387.25 433.722656 387.113281 C 433.089844 386.972656 432.453125 386.945312 431.8125 387.019531 C 431.167969 387.097656 430.558594 387.277344 429.976562 387.558594 C 429.394531 387.839844 428.875 388.210938 428.417969 388.667969 L 418.199219 398.875 C 417.328125 399.746094 416.277344 400.179688 415.042969 400.179688 C 413.800781 400.179688 412.742188 399.746094 411.867188 398.875 L 391.523438 378.550781 C 390.652344 377.683594 390.21875 376.632812 390.21875 375.398438 C 390.21875 374.167969 390.652344 373.117188 391.523438 372.25 L 401.765625 362.015625 C 402.222656 361.558594 402.589844 361.039062 402.875 360.460938 C 403.15625 359.878906 403.335938 359.269531 403.414062 358.625 C 403.488281 357.984375 403.457031 357.347656 403.320312 356.71875 C 403.183594 356.085938 402.945312 355.496094 402.609375 354.945312 C 397.292969 346.226562 393.433594 336.925781 391.042969 327.042969 C 390.890625 326.414062 390.640625 325.828125 390.289062 325.285156 C 389.941406 324.742188 389.511719 324.269531 389.003906 323.871094 C 388.496094 323.472656 387.9375 323.164062 387.324219 322.953125 C 386.714844 322.742188 386.085938 322.636719 385.4375 322.636719 L 370.972656 322.636719 C 369.742188 322.636719 368.6875 322.199219 367.8125 321.324219 C 366.9375 320.449219 366.5 319.398438 366.5 318.164062 L 366.5 289.425781 C 366.5 288.300781 366.875 287.3125 367.625 286.46875 C 367.875 286.183594 368.097656 285.878906 368.289062 285.550781 C 368.480469 285.226562 368.636719 284.882812 368.757812 284.527344 C 368.882812 284.167969 368.972656 283.800781 369.023438 283.429688 C 369.074219 283.054688 369.089844 282.675781 369.066406 282.300781 C 369.042969 281.921875 368.984375 281.550781 368.886719 281.183594 C 368.792969 280.816406 368.660156 280.464844 368.496094 280.125 C 368.328125 279.785156 368.132812 279.464844 367.902344 279.164062 C 367.675781 278.859375 367.417969 278.585938 367.132812 278.332031 C 366.851562 278.082031 366.546875 277.863281 366.21875 277.671875 C 365.890625 277.480469 365.550781 277.324219 365.191406 277.199219 C 364.832031 277.074219 364.46875 276.988281 364.09375 276.9375 C 363.71875 276.886719 363.339844 276.871094 362.960938 276.894531 C 362.585938 276.917969 362.210938 276.976562 361.847656 277.070312 C 361.480469 277.167969 361.125 277.296875 360.785156 277.464844 C 360.445312 277.628906 360.125 277.828125 359.824219 278.054688 C 359.519531 278.285156 359.246094 278.539062 358.992188 278.824219 Z M 582.273438 358.183594 C 587.363281 349.261719 591.125 339.785156 593.550781 329.753906 L 587.945312 328.398438 L 587.945312 334.160156 L 602.433594 334.160156 C 606.851562 334.160156 610.625 332.597656 613.75 329.472656 C 616.878906 326.347656 618.441406 322.578125 618.441406 318.164062 L 618.441406 289.425781 C 618.441406 285.011719 616.878906 281.246094 613.75 278.121094 C 610.625 274.996094 606.851562 273.433594 602.433594 273.433594 L 587.945312 273.433594 L 587.945312 279.195312 L 593.550781 277.839844 C 590.855469 266.730469 586.554688 256.335938 580.644531 246.652344 L 575.722656 249.652344 L 579.796875 253.726562 L 590.019531 243.515625 C 593.152344 240.402344 594.71875 236.632812 594.71875 232.207031 C 594.71875 227.777344 593.148438 224.003906 590.007812 220.882812 L 569.671875 200.570312 C 566.550781 197.449219 562.78125 195.890625 558.363281 195.890625 C 553.945312 195.890625 550.175781 197.449219 547.054688 200.570312 L 536.8125 210.800781 L 540.890625 214.875 L 543.890625 209.957031 C 534.140625 204.015625 523.734375 199.710938 512.671875 197.039062 L 511.316406 202.636719 L 517.082031 202.636719 L 517.082031 188.164062 C 517.082031 183.757812 515.519531 179.996094 512.390625 176.875 C 509.261719 173.753906 505.488281 172.195312 501.074219 172.195312 L 472.308594 172.195312 C 467.894531 172.195312 464.121094 173.753906 460.996094 176.875 C 457.867188 179.996094 456.300781 183.757812 456.300781 188.164062 L 456.300781 202.636719 L 462.066406 202.636719 L 460.710938 197.039062 C 449.632812 199.71875 439.226562 204.027344 429.492188 209.957031 L 432.496094 214.875 L 436.578125 210.804688 L 426.359375 200.574219 C 423.234375 197.453125 419.460938 195.890625 415.042969 195.890625 C 410.628906 195.890625 406.855469 197.445312 403.722656 200.558594 L 383.367188 220.894531 C 380.820312 223.4375 379.308594 226.492188 378.828125 230.058594 C 378.359375 233.550781 378.96875 236.832031 380.65625 239.90625 C 380.835938 240.238281 381.050781 240.546875 381.292969 240.839844 C 381.535156 241.128906 381.804688 241.390625 382.101562 241.628906 C 382.394531 241.867188 382.710938 242.070312 383.046875 242.246094 C 383.382812 242.421875 383.734375 242.5625 384.097656 242.667969 C 384.460938 242.773438 384.832031 242.84375 385.207031 242.875 C 385.585938 242.90625 385.960938 242.902344 386.339844 242.863281 C 386.714844 242.820312 387.082031 242.742188 387.445312 242.628906 C 387.804688 242.515625 388.152344 242.367188 388.484375 242.1875 C 388.816406 242.003906 389.128906 241.792969 389.417969 241.550781 C 389.707031 241.304688 389.972656 241.035156 390.207031 240.742188 C 390.445312 240.445312 390.652344 240.132812 390.824219 239.796875 C 391 239.460938 391.140625 239.109375 391.246094 238.746094 C 391.351562 238.382812 391.421875 238.015625 391.457031 237.636719 C 391.488281 237.261719 391.484375 236.882812 391.441406 236.507812 C 391.402344 236.132812 391.324219 235.765625 391.210938 235.402344 C 391.097656 235.042969 390.949219 234.695312 390.765625 234.363281 C 390.296875 233.503906 390.125 232.582031 390.257812 231.59375 C 390.394531 230.601562 390.8125 229.75 391.523438 229.042969 L 411.855469 208.726562 C 412.738281 207.851562 413.800781 207.414062 415.042969 207.414062 C 416.277344 207.414062 417.328125 207.847656 418.195312 208.710938 L 428.414062 218.945312 C 428.871094 219.402344 429.390625 219.773438 429.972656 220.054688 C 430.554688 220.339844 431.164062 220.519531 431.808594 220.59375 C 432.449219 220.671875 433.085938 220.640625 433.71875 220.503906 C 434.351562 220.367188 434.945312 220.128906 435.496094 219.792969 C 444.207031 214.488281 453.515625 210.636719 463.425781 208.238281 C 464.054688 208.085938 464.640625 207.835938 465.183594 207.484375 C 465.730469 207.136719 466.199219 206.707031 466.601562 206.199219 C 467 205.691406 467.304688 205.132812 467.515625 204.523438 C 467.730469 203.910156 467.835938 203.285156 467.835938 202.636719 L 467.835938 188.164062 C 467.835938 186.945312 468.269531 185.898438 469.144531 185.027344 C 470.019531 184.152344 471.074219 183.71875 472.308594 183.71875 L 501.074219 183.71875 C 502.308594 183.71875 503.363281 184.152344 504.242188 185.027344 C 505.113281 185.898438 505.550781 186.945312 505.550781 188.164062 L 505.550781 202.636719 C 505.550781 203.285156 505.65625 203.914062 505.867188 204.523438 C 506.078125 205.132812 506.386719 205.691406 506.785156 206.199219 C 507.183594 206.707031 507.65625 207.136719 508.203125 207.484375 C 508.746094 207.835938 509.332031 208.085938 509.960938 208.238281 C 519.855469 210.628906 529.164062 214.480469 537.886719 219.792969 C 538.4375 220.128906 539.03125 220.367188 539.664062 220.503906 C 540.292969 220.640625 540.929688 220.671875 541.574219 220.59375 C 542.214844 220.519531 542.828125 220.339844 543.410156 220.058594 C 543.992188 219.773438 544.507812 219.40625 544.96875 218.949219 L 555.207031 208.714844 C 556.078125 207.847656 557.128906 207.414062 558.363281 207.414062 C 559.597656 207.414062 560.648438 207.847656 561.515625 208.714844 L 581.875 229.054688 C 582.746094 229.921875 583.183594 230.972656 583.183594 232.207031 C 583.183594 233.4375 582.742188 234.492188 581.863281 235.367188 L 571.644531 245.578125 C 571.1875 246.035156 570.816406 246.550781 570.535156 247.132812 C 570.25 247.714844 570.070312 248.324219 569.996094 248.96875 C 569.917969 249.609375 569.949219 250.246094 570.085938 250.875 C 570.222656 251.507812 570.460938 252.097656 570.796875 252.648438 C 576.082031 261.308594 579.929688 270.609375 582.34375 280.550781 C 582.496094 281.179688 582.746094 281.765625 583.09375 282.308594 C 583.445312 282.851562 583.875 283.324219 584.382812 283.722656 C 584.890625 284.125 585.449219 284.429688 586.058594 284.640625 C 586.671875 284.851562 587.300781 284.957031 587.945312 284.957031 L 602.433594 284.957031 C 603.667969 284.957031 604.71875 285.394531 605.59375 286.269531 C 606.46875 287.140625 606.910156 288.195312 606.910156 289.425781 L 606.910156 318.164062 C 606.910156 319.398438 606.46875 320.449219 605.59375 321.324219 C 604.71875 322.199219 603.667969 322.636719 602.433594 322.636719 L 587.945312 322.636719 C 587.300781 322.636719 586.671875 322.742188 586.058594 322.953125 C 585.449219 323.164062 584.886719 323.472656 584.378906 323.871094 C 583.871094 324.269531 583.441406 324.742188 583.09375 325.285156 C 582.746094 325.828125 582.492188 326.414062 582.339844 327.042969 C 580.167969 336.019531 576.804688 344.496094 572.253906 352.476562 C 572.066406 352.804688 571.910156 353.148438 571.792969 353.507812 C 571.671875 353.867188 571.589844 354.234375 571.542969 354.609375 C 571.492188 354.984375 571.484375 355.363281 571.511719 355.738281 C 571.539062 356.117188 571.601562 356.488281 571.699219 356.851562 C 571.800781 357.21875 571.933594 357.570312 572.105469 357.90625 C 572.273438 358.246094 572.476562 358.5625 572.707031 358.863281 C 572.9375 359.160156 573.199219 359.433594 573.484375 359.683594 C 573.769531 359.929688 574.078125 360.148438 574.40625 360.335938 C 574.734375 360.523438 575.078125 360.675781 575.4375 360.796875 C 575.796875 360.914062 576.164062 361 576.542969 361.046875 C 576.917969 361.09375 577.292969 361.105469 577.671875 361.078125 C 578.050781 361.050781 578.421875 360.988281 578.785156 360.886719 C 579.152344 360.789062 579.503906 360.652344 579.84375 360.484375 C 580.179688 360.3125 580.5 360.113281 580.796875 359.882812 C 581.097656 359.648438 581.371094 359.390625 581.621094 359.105469 C 581.867188 358.820312 582.085938 358.511719 582.273438 358.183594 Z M 582.273438 358.183594 " fill-opacity="1" fill-rule="nonzero"/></g><path fill="#dfddd0" d="M 238.152344 355.984375 C 238.152344 336.050781 254.320312 319.894531 274.273438 319.894531 C 294.25 319.894531 310.421875 336.050781 310.421875 355.984375 C 310.421875 375.941406 294.25 392.097656 274.273438 392.097656 C 254.320312 392.097656 238.152344 375.941406 238.152344 355.984375 Z M 289.316406 426.550781 L 289.316406 417.722656 C 295.75 416.15625 301.839844 413.621094 307.355469 410.257812 L 313.582031 416.480469 C 316.027344 418.921875 319.996094 418.921875 322.441406 416.480469 L 334.828125 404.101562 C 337.273438 401.660156 337.273438 397.695312 334.828125 395.277344 L 328.597656 389.03125 C 331.96875 383.523438 334.503906 377.4375 336.074219 371.007812 L 344.882812 371.007812 C 348.34375 371.007812 351.136719 368.222656 351.136719 364.765625 L 351.136719 347.226562 C 351.136719 343.769531 348.34375 340.980469 344.882812 340.980469 L 336.074219 340.980469 C 334.503906 334.527344 331.96875 328.46875 328.597656 322.960938 L 334.828125 316.714844 C 337.273438 314.292969 337.273438 310.328125 334.828125 307.886719 L 322.441406 295.488281 C 319.996094 293.070312 316.027344 293.070312 313.582031 295.488281 L 307.355469 301.734375 C 301.839844 298.371094 295.75 295.835938 289.316406 294.265625 L 289.316406 285.441406 C 289.316406 282.007812 286.5 279.195312 283.0625 279.195312 L 265.507812 279.195312 C 262.050781 279.195312 259.257812 282.007812 259.257812 285.441406 L 259.257812 294.265625 C 252.800781 295.835938 246.734375 298.371094 241.21875 301.734375 L 234.96875 295.488281 C 232.523438 293.070312 228.578125 293.070312 226.132812 295.488281 L 213.722656 307.886719 C 211.277344 310.328125 211.277344 314.292969 213.722656 316.714844 L 219.972656 322.960938 C 216.605469 328.46875 214.070312 334.527344 212.5 340.980469 L 203.664062 340.980469 C 200.207031 340.980469 197.414062 343.769531 197.414062 347.226562 L 197.414062 364.765625 C 197.414062 368.222656 200.207031 371.007812 203.664062 371.007812 L 212.5 371.007812 C 214.070312 377.4375 216.605469 383.523438 219.972656 389.03125 L 213.722656 395.277344 C 211.277344 397.695312 211.277344 401.660156 213.722656 404.101562 L 226.132812 416.480469 C 228.578125 418.921875 232.523438 418.921875 234.96875 416.480469 L 241.21875 410.257812 C 246.734375 413.621094 252.800781 416.15625 259.257812 417.722656 L 259.257812 426.550781 C 259.257812 429.984375 262.050781 432.773438 265.507812 432.773438 L 283.0625 432.773438 C 286.5 432.773438 289.316406 429.984375 289.316406 426.550781 " fill-opacity="1" fill-rule="nonzero"/><path fill="#192646" d="M 243.917969 355.984375 C 243.917969 351.867188 244.710938 347.933594 246.300781 344.179688 C 247.835938 340.550781 250.007812 337.335938 252.808594 334.539062 C 255.609375 331.738281 258.828125 329.570312 262.460938 328.035156 C 266.214844 326.449219 270.15625 325.65625 274.273438 325.65625 C 278.402344 325.65625 282.34375 326.449219 286.105469 328.035156 C 289.738281 329.570312 292.957031 331.738281 295.761719 334.539062 C 298.566406 337.339844 300.734375 340.550781 302.273438 344.179688 C 303.859375 347.933594 304.65625 351.867188 304.65625 355.984375 C 304.65625 360.105469 303.859375 364.046875 302.269531 367.804688 C 300.734375 371.433594 298.566406 374.648438 295.761719 377.449219 C 292.957031 380.25 289.738281 382.417969 286.105469 383.953125 C 282.34375 385.542969 278.402344 386.335938 274.273438 386.335938 C 270.152344 386.335938 266.214844 385.542969 262.460938 383.953125 C 258.828125 382.417969 255.613281 380.253906 252.808594 377.449219 C 250.007812 374.648438 247.835938 371.433594 246.300781 367.804688 C 244.710938 364.046875 243.917969 360.105469 243.917969 355.984375 C 243.917969 355.605469 243.882812 355.230469 243.808594 354.859375 C 243.734375 354.488281 243.625 354.128906 243.480469 353.777344 C 243.335938 353.429688 243.15625 353.097656 242.945312 352.78125 C 242.734375 352.46875 242.496094 352.175781 242.230469 351.910156 C 241.960938 351.640625 241.671875 351.402344 241.355469 351.195312 C 241.039062 350.984375 240.707031 350.804688 240.359375 350.660156 C 240.007812 350.515625 239.648438 350.40625 239.277344 350.332031 C 238.90625 350.257812 238.53125 350.222656 238.152344 350.222656 C 237.773438 350.222656 237.398438 350.257812 237.027344 350.332031 C 236.65625 350.40625 236.292969 350.515625 235.945312 350.660156 C 235.59375 350.804688 235.261719 350.984375 234.949219 351.195312 C 234.632812 351.402344 234.339844 351.640625 234.074219 351.910156 C 233.804688 352.175781 233.566406 352.46875 233.355469 352.78125 C 233.144531 353.097656 232.96875 353.429688 232.824219 353.777344 C 232.679688 354.128906 232.570312 354.488281 232.496094 354.859375 C 232.421875 355.230469 232.382812 355.605469 232.382812 355.984375 C 232.382812 361.664062 233.480469 367.097656 235.679688 372.289062 C 237.796875 377.300781 240.789062 381.734375 244.652344 385.597656 C 248.515625 389.457031 252.953125 392.449219 257.964844 394.566406 C 263.160156 396.761719 268.59375 397.859375 274.273438 397.859375 C 279.960938 397.859375 285.402344 396.761719 290.597656 394.566406 C 295.613281 392.449219 300.050781 389.460938 303.917969 385.597656 C 307.78125 381.738281 310.773438 377.300781 312.894531 372.289062 C 315.089844 367.097656 316.1875 361.664062 316.1875 355.984375 C 316.1875 350.308594 315.089844 344.878906 312.894531 339.691406 C 310.773438 334.683594 307.78125 330.25 303.917969 326.386719 C 300.050781 322.527344 295.609375 319.539062 290.59375 317.421875 C 285.398438 315.230469 279.960938 314.132812 274.273438 314.132812 C 268.59375 314.132812 263.160156 315.230469 257.964844 317.421875 C 252.953125 319.542969 248.515625 322.53125 244.652344 326.390625 C 240.789062 330.25 237.796875 334.683594 235.679688 339.691406 C 233.484375 344.878906 232.382812 350.308594 232.382812 355.984375 C 232.382812 356.363281 232.421875 356.738281 232.496094 357.109375 C 232.570312 357.480469 232.679688 357.839844 232.824219 358.1875 C 232.96875 358.539062 233.144531 358.871094 233.355469 359.183594 C 233.566406 359.5 233.804688 359.789062 234.074219 360.058594 C 234.339844 360.324219 234.632812 360.5625 234.949219 360.773438 C 235.261719 360.984375 235.59375 361.160156 235.945312 361.308594 C 236.292969 361.453125 236.65625 361.5625 237.027344 361.632812 C 237.398438 361.707031 237.773438 361.746094 238.152344 361.746094 C 238.53125 361.746094 238.90625 361.707031 239.277344 361.632812 C 239.648438 361.5625 240.007812 361.453125 240.359375 361.308594 C 240.707031 361.160156 241.039062 360.984375 241.355469 360.773438 C 241.671875 360.5625 241.960938 360.324219 242.230469 360.058594 C 242.496094 359.789062 242.734375 359.5 242.945312 359.183594 C 243.15625 358.871094 243.335938 358.539062 243.480469 358.1875 C 243.625 357.839844 243.734375 357.480469 243.808594 357.109375 C 243.882812 356.738281 243.917969 356.363281 243.917969 355.984375 Z M 191.648438 363.710938 L 191.648438 364.765625 C 191.648438 368.082031 192.820312 370.914062 195.164062 373.257812 C 197.507812 375.601562 200.34375 376.769531 203.664062 376.769531 L 212.5 376.769531 L 212.5 371.007812 L 206.898438 372.375 C 208.609375 379.386719 211.328125 385.941406 215.054688 392.035156 L 219.972656 389.03125 L 215.898438 384.957031 L 209.644531 391.203125 C 207.296875 393.527344 206.121094 396.351562 206.121094 399.679688 C 206.121094 403 207.296875 405.832031 209.644531 408.175781 L 222.058594 420.554688 C 224.40625 422.902344 227.234375 424.074219 230.550781 424.074219 C 233.867188 424.074219 236.699219 422.898438 239.046875 420.554688 L 245.289062 414.335938 L 241.21875 410.257812 L 238.214844 415.171875 C 244.328125 418.90625 250.890625 421.621094 257.898438 423.320312 L 259.257812 417.722656 L 253.492188 417.722656 L 253.492188 426.550781 C 253.492188 429.863281 254.664062 432.6875 257.015625 435.027344 C 259.359375 437.363281 262.191406 438.535156 265.507812 438.535156 L 283.0625 438.535156 C 286.371094 438.535156 289.199219 437.367188 291.546875 435.03125 C 293.902344 432.691406 295.082031 429.863281 295.082031 426.550781 L 295.082031 417.722656 L 289.316406 417.722656 L 290.679688 423.320312 C 297.699219 421.613281 304.261719 418.894531 310.359375 415.171875 L 307.355469 410.257812 L 303.277344 414.332031 L 309.503906 420.554688 C 311.851562 422.898438 314.6875 424.074219 318.011719 424.074219 C 321.332031 424.074219 324.167969 422.898438 326.519531 420.550781 L 338.90625 408.175781 C 341.253906 405.832031 342.429688 403 342.429688 399.679688 C 342.429688 396.351562 341.246094 393.519531 338.886719 391.183594 L 332.683594 384.964844 L 328.597656 389.03125 L 333.519531 392.035156 C 337.246094 385.941406 339.964844 379.386719 341.675781 372.375 L 336.074219 371.007812 L 336.074219 376.769531 L 344.882812 376.769531 C 348.207031 376.769531 351.039062 375.601562 353.386719 373.257812 C 355.730469 370.914062 356.902344 368.082031 356.902344 364.765625 L 356.902344 347.226562 C 356.902344 343.90625 355.730469 341.074219 353.386719 338.734375 C 351.039062 336.390625 348.207031 335.21875 344.882812 335.21875 L 336.074219 335.21875 L 336.074219 340.980469 L 341.675781 339.621094 C 339.976562 332.621094 337.257812 326.066406 333.519531 319.957031 L 328.597656 322.960938 L 332.683594 327.027344 L 338.914062 320.78125 C 341.257812 318.460938 342.429688 315.636719 342.429688 312.308594 C 342.429688 308.992188 341.253906 306.160156 338.90625 303.8125 L 326.523438 291.417969 C 324.160156 289.082031 321.324219 287.914062 318.011719 287.914062 C 314.699219 287.914062 311.871094 289.074219 309.523438 291.394531 L 303.269531 297.667969 L 307.355469 301.734375 L 310.359375 296.816406 C 304.261719 293.09375 297.699219 290.378906 290.679688 288.667969 L 289.316406 294.265625 L 295.082031 294.265625 L 295.082031 285.441406 C 295.082031 282.132812 293.90625 279.304688 291.554688 276.957031 C 289.207031 274.609375 286.375 273.433594 283.0625 273.433594 L 265.507812 273.433594 C 262.1875 273.433594 259.351562 274.609375 257.003906 276.960938 C 254.660156 279.304688 253.492188 282.132812 253.492188 285.441406 L 253.492188 294.265625 L 259.257812 294.265625 L 257.898438 288.667969 C 250.890625 290.367188 244.328125 293.085938 238.214844 296.816406 L 241.21875 301.734375 L 245.296875 297.660156 L 239.046875 291.414062 C 236.6875 289.078125 233.855469 287.914062 230.550781 287.914062 C 227.246094 287.914062 224.421875 289.074219 222.074219 291.394531 L 209.644531 303.8125 C 209.285156 304.171875 208.949219 304.554688 208.640625 304.953125 C 208.40625 305.253906 208.207031 305.570312 208.039062 305.910156 C 207.867188 306.246094 207.734375 306.601562 207.632812 306.964844 C 207.535156 307.328125 207.472656 307.699219 207.445312 308.078125 C 207.417969 308.457031 207.429688 308.832031 207.476562 309.207031 C 207.523438 309.582031 207.605469 309.949219 207.726562 310.308594 C 207.847656 310.667969 208 311.011719 208.1875 311.339844 C 208.375 311.667969 208.59375 311.976562 208.84375 312.261719 C 209.089844 312.546875 209.363281 312.804688 209.664062 313.035156 C 209.964844 313.269531 210.28125 313.46875 210.621094 313.636719 C 210.960938 313.808594 211.3125 313.941406 211.675781 314.039062 C 212.042969 314.140625 212.414062 314.203125 212.792969 314.230469 C 213.167969 314.257812 213.546875 314.246094 213.921875 314.199219 C 214.296875 314.152344 214.664062 314.066406 215.023438 313.949219 C 215.382812 313.828125 215.726562 313.675781 216.054688 313.488281 C 216.382812 313.300781 216.691406 313.082031 216.976562 312.832031 C 217.265625 312.585938 217.523438 312.3125 217.753906 312.011719 C 217.769531 311.996094 217.785156 311.976562 217.800781 311.960938 L 230.191406 299.582031 C 230.429688 299.34375 230.664062 299.339844 230.890625 299.5625 L 237.140625 305.808594 C 237.597656 306.265625 238.117188 306.636719 238.699219 306.917969 C 239.28125 307.199219 239.894531 307.378906 240.539062 307.453125 C 241.179688 307.53125 241.816406 307.5 242.449219 307.363281 C 243.082031 307.226562 243.671875 306.988281 244.226562 306.652344 C 249.316406 303.542969 254.78125 301.28125 260.621094 299.867188 C 261.246094 299.714844 261.832031 299.460938 262.378906 299.113281 C 262.921875 298.765625 263.390625 298.335938 263.792969 297.828125 C 264.191406 297.320312 264.496094 296.761719 264.707031 296.152344 C 264.917969 295.539062 265.023438 294.914062 265.023438 294.265625 L 265.023438 285.441406 C 265.023438 285.308594 265.074219 285.195312 265.167969 285.097656 C 265.265625 285.003906 265.378906 284.957031 265.507812 284.957031 L 283.0625 284.957031 C 283.386719 284.957031 283.546875 285.117188 283.546875 285.441406 L 283.546875 294.265625 C 283.546875 294.914062 283.652344 295.539062 283.863281 296.148438 C 284.074219 296.761719 284.382812 297.320312 284.78125 297.828125 C 285.179688 298.332031 285.648438 298.761719 286.195312 299.113281 C 286.738281 299.460938 287.320312 299.710938 287.949219 299.863281 C 293.804688 301.289062 299.269531 303.550781 304.347656 306.652344 C 304.902344 306.988281 305.492188 307.226562 306.125 307.363281 C 306.757812 307.5 307.398438 307.53125 308.042969 307.453125 C 308.683594 307.378906 309.296875 307.195312 309.878906 306.914062 C 310.460938 306.628906 310.980469 306.257812 311.4375 305.800781 L 317.640625 299.582031 C 317.886719 299.335938 318.125 299.328125 318.359375 299.558594 L 330.75 311.960938 C 330.847656 312.058594 330.894531 312.171875 330.894531 312.308594 C 330.894531 312.433594 330.84375 312.546875 330.742188 312.648438 L 324.515625 318.894531 C 324.058594 319.351562 323.6875 319.871094 323.40625 320.449219 C 323.125 321.03125 322.949219 321.640625 322.871094 322.285156 C 322.796875 322.925781 322.828125 323.558594 322.964844 324.191406 C 323.105469 324.820312 323.339844 325.410156 323.679688 325.960938 C 326.789062 331.046875 329.050781 336.507812 330.46875 342.339844 C 330.621094 342.96875 330.871094 343.554688 331.222656 344.097656 C 331.570312 344.640625 332 345.109375 332.507812 345.511719 C 333.015625 345.910156 333.578125 346.214844 334.1875 346.425781 C 334.796875 346.636719 335.425781 346.742188 336.074219 346.742188 L 344.882812 346.742188 C 345.207031 346.742188 345.367188 346.902344 345.367188 347.226562 L 345.367188 364.765625 C 345.367188 365.085938 345.207031 365.25 344.882812 365.25 L 336.074219 365.25 C 335.425781 365.25 334.796875 365.355469 334.1875 365.5625 C 333.578125 365.773438 333.019531 366.082031 332.511719 366.480469 C 332.003906 366.878906 331.574219 367.347656 331.222656 367.890625 C 330.875 368.433594 330.621094 369.019531 330.46875 369.644531 C 329.042969 375.496094 326.777344 380.957031 323.679688 386.027344 C 323.339844 386.578125 323.105469 387.167969 322.964844 387.800781 C 322.828125 388.429688 322.796875 389.066406 322.871094 389.707031 C 322.949219 390.347656 323.125 390.960938 323.40625 391.539062 C 323.6875 392.121094 324.058594 392.640625 324.515625 393.097656 L 330.769531 399.371094 C 330.851562 399.453125 330.894531 399.554688 330.894531 399.679688 C 330.894531 399.816406 330.847656 399.933594 330.75 400.027344 L 318.363281 412.40625 C 318.128906 412.640625 317.894531 412.640625 317.660156 412.40625 L 311.433594 406.183594 C 310.972656 405.726562 310.453125 405.355469 309.871094 405.074219 C 309.289062 404.792969 308.679688 404.613281 308.035156 404.535156 C 307.394531 404.460938 306.757812 404.488281 306.125 404.628906 C 305.492188 404.765625 304.898438 405.003906 304.347656 405.339844 C 299.269531 408.4375 293.804688 410.699219 287.949219 412.125 C 287.320312 412.277344 286.738281 412.53125 286.195312 412.878906 C 285.648438 413.226562 285.179688 413.65625 284.78125 414.164062 C 284.382812 414.671875 284.074219 415.230469 283.863281 415.839844 C 283.652344 416.449219 283.546875 417.078125 283.546875 417.722656 L 283.546875 426.550781 C 283.546875 426.855469 283.386719 427.011719 283.0625 427.011719 L 265.507812 427.011719 C 265.1875 427.011719 265.023438 426.855469 265.023438 426.550781 L 265.023438 417.722656 C 265.023438 417.078125 264.917969 416.449219 264.707031 415.839844 C 264.496094 415.230469 264.191406 414.671875 263.792969 414.164062 C 263.390625 413.65625 262.921875 413.226562 262.378906 412.875 C 261.832031 412.527344 261.246094 412.277344 260.621094 412.125 C 254.78125 410.707031 249.316406 408.445312 244.226562 405.339844 C 243.675781 405.003906 243.082031 404.765625 242.453125 404.628906 C 241.820312 404.488281 241.183594 404.460938 240.542969 404.535156 C 239.902344 404.609375 239.289062 404.789062 238.707031 405.070312 C 238.125 405.351562 237.605469 405.71875 237.148438 406.175781 L 230.890625 412.40625 C 230.664062 412.632812 230.4375 412.628906 230.207031 412.402344 L 217.800781 400.03125 C 217.703125 399.933594 217.65625 399.816406 217.65625 399.679688 C 217.65625 399.554688 217.703125 399.445312 217.800781 399.351562 L 224.050781 393.105469 C 224.507812 392.648438 224.878906 392.128906 225.164062 391.546875 C 225.445312 390.964844 225.625 390.355469 225.699219 389.710938 C 225.777344 389.070312 225.746094 388.433594 225.609375 387.800781 C 225.46875 387.171875 225.234375 386.578125 224.894531 386.027344 C 221.792969 380.957031 219.53125 375.496094 218.101562 369.644531 C 217.949219 369.019531 217.699219 368.433594 217.347656 367.890625 C 217 367.347656 216.570312 366.878906 216.0625 366.480469 C 215.554688 366.082031 214.996094 365.773438 214.386719 365.5625 C 213.773438 365.355469 213.144531 365.25 212.5 365.25 L 203.664062 365.25 C 203.527344 365.25 203.414062 365.203125 203.320312 365.109375 C 203.226562 365.015625 203.179688 364.902344 203.179688 364.765625 L 203.179688 363.710938 C 203.179688 363.332031 203.144531 362.957031 203.070312 362.585938 C 202.996094 362.214844 202.886719 361.855469 202.742188 361.503906 C 202.597656 361.15625 202.417969 360.824219 202.210938 360.507812 C 202 360.195312 201.761719 359.902344 201.492188 359.636719 C 201.222656 359.371094 200.933594 359.128906 200.617188 358.921875 C 200.304688 358.710938 199.972656 358.53125 199.621094 358.386719 C 199.269531 358.242188 198.910156 358.132812 198.539062 358.058594 C 198.167969 357.984375 197.792969 357.949219 197.414062 357.949219 C 197.035156 357.949219 196.660156 357.984375 196.289062 358.058594 C 195.917969 358.132812 195.558594 358.242188 195.207031 358.386719 C 194.859375 358.53125 194.523438 358.710938 194.210938 358.921875 C 193.894531 359.128906 193.605469 359.371094 193.335938 359.636719 C 193.070312 359.902344 192.828125 360.195312 192.621094 360.507812 C 192.410156 360.824219 192.230469 361.15625 192.085938 361.503906 C 191.941406 361.855469 191.832031 362.214844 191.757812 362.585938 C 191.683594 362.957031 191.648438 363.332031 191.648438 363.710938 Z M 191.648438 363.710938 " fill-opacity="1" fill-rule="nonzero"/><path fill="#dfddd0" d="M 371.898438 581.601562 C 345.578125 581.601562 324.238281 560.308594 324.238281 534.011719 C 324.238281 507.714844 345.578125 486.398438 371.898438 486.398438 C 398.195312 486.398438 419.53125 507.714844 419.53125 534.011719 C 419.53125 560.308594 398.195312 581.601562 371.898438 581.601562 Z M 464.972656 514.214844 L 453.347656 514.214844 C 451.273438 505.710938 447.925781 497.714844 443.5 490.457031 L 451.710938 482.25 C 454.941406 479.023438 454.941406 473.816406 451.710938 470.613281 L 435.355469 454.273438 C 432.125 451.046875 426.9375 451.046875 423.707031 454.273438 L 415.472656 462.476562 C 408.203125 458.054688 400.199219 454.710938 391.6875 452.636719 L 391.6875 441.023438 C 391.6875 436.460938 387.996094 432.773438 383.453125 432.773438 L 360.316406 432.773438 C 355.773438 432.773438 352.082031 436.460938 352.082031 441.023438 L 352.082031 452.636719 C 343.570312 454.710938 335.566406 458.054688 328.300781 462.476562 L 320.0625 454.273438 C 316.859375 451.046875 311.644531 451.046875 308.414062 454.273438 L 292.058594 470.613281 C 288.855469 473.816406 288.855469 479.023438 292.058594 482.25 L 300.296875 490.457031 C 295.867188 497.714844 292.523438 505.710938 290.445312 514.214844 L 278.820312 514.214844 C 274.253906 514.214844 270.5625 517.902344 270.5625 522.464844 L 270.5625 545.558594 C 270.5625 550.121094 274.253906 553.785156 278.820312 553.785156 L 290.445312 553.785156 C 292.519531 562.289062 295.867188 570.285156 300.296875 577.570312 L 292.058594 585.773438 C 288.855469 589 288.855469 594.207031 292.058594 597.410156 L 308.414062 613.75 C 311.644531 616.976562 316.859375 616.976562 320.0625 613.75 L 328.300781 605.546875 C 335.566406 609.96875 343.570312 613.3125 352.082031 615.386719 L 352.082031 627 C 352.082031 631.542969 355.773438 635.230469 360.316406 635.230469 L 383.453125 635.230469 C 387.996094 635.230469 391.6875 631.542969 391.6875 627 L 391.6875 615.386719 C 400.199219 613.3125 408.203125 609.96875 415.472656 605.546875 L 423.707031 613.75 C 426.9375 616.976562 432.125 616.976562 435.355469 613.75 L 451.710938 597.410156 C 454.941406 594.207031 454.941406 589 451.710938 585.773438 L 443.5 577.570312 C 447.925781 570.285156 451.273438 562.289062 453.347656 553.785156 L 464.972656 553.785156 C 469.519531 553.785156 473.210938 550.121094 473.210938 545.558594 L 473.210938 522.464844 C 473.210938 517.902344 469.519531 514.214844 464.972656 514.214844 " fill-opacity="1" fill-rule="nonzero"/><g clip-path="url(#id2)"><path fill="#192646" d="M 371.898438 575.839844 C 366.210938 575.839844 360.777344 574.746094 355.589844 572.554688 C 350.582031 570.441406 346.140625 567.453125 342.273438 563.59375 C 338.40625 559.730469 335.414062 555.300781 333.296875 550.296875 C 331.101562 545.117188 330.007812 539.691406 330.007812 534.011719 C 330.007812 528.332031 331.101562 522.902344 333.296875 517.722656 C 335.414062 512.71875 338.410156 508.28125 342.277344 504.417969 C 346.144531 500.554688 350.582031 497.566406 355.59375 495.449219 C 360.777344 493.257812 366.210938 492.160156 371.898438 492.160156 C 377.574219 492.160156 383.003906 493.257812 388.1875 495.445312 C 393.195312 497.566406 397.632812 500.554688 401.496094 504.417969 C 405.363281 508.28125 408.355469 512.71875 410.476562 517.722656 C 412.667969 522.902344 413.765625 528.332031 413.765625 534.011719 C 413.765625 539.691406 412.667969 545.117188 410.476562 550.296875 C 408.355469 555.300781 405.363281 559.730469 401.5 563.59375 C 397.632812 567.453125 393.195312 570.441406 388.1875 572.558594 C 383.007812 574.746094 377.574219 575.839844 371.898438 575.839844 C 371.519531 575.839844 371.144531 575.875 370.773438 575.949219 C 370.398438 576.023438 370.039062 576.132812 369.691406 576.277344 C 369.339844 576.421875 369.007812 576.601562 368.691406 576.8125 C 368.378906 577.019531 368.085938 577.261719 367.820312 577.527344 C 367.550781 577.796875 367.3125 578.085938 367.101562 578.402344 C 366.890625 578.714844 366.714844 579.046875 366.570312 579.398438 C 366.425781 579.746094 366.316406 580.105469 366.242188 580.476562 C 366.167969 580.847656 366.128906 581.222656 366.128906 581.601562 C 366.128906 581.980469 366.167969 582.355469 366.242188 582.726562 C 366.316406 583.097656 366.425781 583.457031 366.570312 583.804688 C 366.714844 584.15625 366.890625 584.488281 367.101562 584.800781 C 367.3125 585.117188 367.550781 585.40625 367.820312 585.675781 C 368.085938 585.941406 368.378906 586.183594 368.691406 586.390625 C 369.007812 586.601562 369.339844 586.78125 369.691406 586.925781 C 370.039062 587.070312 370.398438 587.179688 370.773438 587.253906 C 371.144531 587.324219 371.519531 587.363281 371.898438 587.363281 C 379.136719 587.363281 386.0625 585.964844 392.679688 583.167969 C 399.070312 580.472656 404.726562 576.660156 409.652344 571.742188 C 414.578125 566.820312 418.394531 561.167969 421.097656 554.785156 C 423.898438 548.171875 425.296875 541.25 425.296875 534.011719 C 425.296875 526.777344 423.898438 519.851562 421.097656 513.234375 C 418.394531 506.847656 414.578125 501.195312 409.652344 496.273438 C 404.726562 491.347656 399.070312 487.535156 392.679688 484.835938 C 386.0625 482.039062 379.136719 480.636719 371.898438 480.636719 C 364.652344 480.636719 357.722656 482.035156 351.101562 484.835938 C 344.707031 487.535156 339.046875 491.347656 334.121094 496.269531 C 329.191406 501.195312 325.378906 506.847656 322.671875 513.234375 C 319.871094 519.851562 318.472656 526.773438 318.472656 534.011719 C 318.472656 541.25 319.871094 548.171875 322.671875 554.785156 C 325.378906 561.171875 329.195312 566.824219 334.121094 571.742188 C 339.050781 576.664062 344.710938 580.472656 351.101562 583.171875 C 357.722656 585.964844 364.652344 587.363281 371.898438 587.363281 C 372.273438 587.363281 372.648438 587.324219 373.023438 587.253906 C 373.394531 587.179688 373.753906 587.070312 374.105469 586.925781 C 374.453125 586.78125 374.785156 586.601562 375.101562 586.390625 C 375.414062 586.183594 375.707031 585.941406 375.972656 585.675781 C 376.242188 585.40625 376.480469 585.117188 376.691406 584.800781 C 376.902344 584.488281 377.078125 584.15625 377.222656 583.804688 C 377.371094 583.457031 377.480469 583.097656 377.554688 582.726562 C 377.625 582.355469 377.664062 581.980469 377.664062 581.601562 C 377.664062 581.222656 377.625 580.847656 377.554688 580.476562 C 377.480469 580.105469 377.371094 579.746094 377.222656 579.398438 C 377.078125 579.046875 376.902344 578.714844 376.691406 578.402344 C 376.480469 578.085938 376.242188 577.796875 375.972656 577.527344 C 375.707031 577.261719 375.414062 577.019531 375.101562 576.8125 C 374.785156 576.601562 374.453125 576.421875 374.105469 576.277344 C 373.753906 576.132812 373.394531 576.023438 373.023438 575.949219 C 372.648438 575.875 372.273438 575.839844 371.898438 575.839844 Z M 292.136719 577.558594 L 287.988281 581.691406 C 285.253906 584.441406 283.886719 587.746094 283.886719 591.601562 C 283.886719 595.464844 285.253906 598.757812 287.984375 601.484375 L 304.335938 617.824219 C 307.078125 620.5625 310.382812 621.929688 314.25 621.929688 C 318.121094 621.929688 321.425781 620.558594 324.15625 617.808594 L 332.371094 609.625 L 328.300781 605.546875 L 325.296875 610.464844 C 333.191406 615.273438 341.664062 618.777344 350.714844 620.984375 L 352.082031 615.386719 L 346.316406 615.386719 L 346.316406 627 C 346.316406 630.863281 347.683594 634.160156 350.417969 636.890625 C 353.152344 639.625 356.453125 640.988281 360.316406 640.988281 L 383.453125 640.988281 C 387.316406 640.988281 390.617188 639.625 393.351562 636.890625 C 396.089844 634.160156 397.457031 630.863281 397.457031 627 L 397.457031 615.386719 L 391.6875 615.386719 L 393.054688 620.984375 C 402.105469 618.777344 410.578125 615.273438 418.472656 610.464844 L 415.472656 605.546875 L 411.398438 609.625 L 419.632812 617.828125 C 422.371094 620.5625 425.671875 621.929688 429.53125 621.929688 C 433.390625 621.929688 436.691406 620.5625 439.433594 617.824219 L 455.789062 601.484375 C 458.527344 598.765625 459.898438 595.472656 459.898438 591.601562 C 459.898438 587.738281 458.527344 584.4375 455.789062 581.699219 L 447.574219 573.496094 L 443.5 577.570312 L 448.425781 580.558594 C 453.238281 572.648438 456.746094 564.175781 458.949219 555.152344 L 453.347656 553.785156 L 453.347656 559.546875 L 464.972656 559.546875 C 468.839844 559.546875 472.136719 558.183594 474.871094 555.460938 C 477.605469 552.730469 478.976562 549.429688 478.976562 545.558594 L 478.976562 522.464844 C 478.976562 518.597656 477.609375 515.292969 474.878906 512.558594 C 472.144531 509.824219 468.84375 508.453125 464.972656 508.453125 L 453.347656 508.453125 L 453.347656 514.214844 L 458.949219 512.851562 C 456.742188 503.808594 453.234375 495.34375 448.421875 487.457031 L 443.5 490.457031 L 447.574219 494.53125 L 455.789062 486.324219 C 458.527344 483.585938 459.898438 480.285156 459.898438 476.421875 C 459.898438 472.550781 458.523438 469.253906 455.773438 466.523438 L 439.433594 450.199219 C 436.691406 447.460938 433.390625 446.09375 429.53125 446.09375 C 425.671875 446.09375 422.371094 447.460938 419.628906 450.199219 L 411.398438 458.398438 L 415.472656 462.476562 L 418.472656 457.558594 C 410.578125 452.753906 402.105469 449.246094 393.054688 447.039062 L 391.6875 452.636719 L 397.457031 452.636719 L 397.457031 441.023438 C 397.457031 437.152344 396.089844 433.851562 393.355469 431.117188 C 390.621094 428.378906 387.320312 427.011719 383.453125 427.011719 L 360.316406 427.011719 C 356.449219 427.011719 353.148438 428.378906 350.414062 431.117188 C 347.679688 433.851562 346.316406 437.152344 346.316406 441.023438 L 346.316406 452.636719 L 352.082031 452.636719 L 350.714844 447.039062 C 341.664062 449.246094 333.191406 452.753906 325.296875 457.558594 L 328.300781 462.476562 L 332.371094 458.398438 L 324.136719 450.195312 C 321.417969 447.460938 318.121094 446.09375 314.25 446.09375 C 310.382812 446.09375 307.078125 447.460938 304.335938 450.199219 L 287.984375 466.539062 C 285.253906 469.265625 283.886719 472.5625 283.886719 476.421875 C 283.886719 480.277344 285.25 483.574219 287.96875 486.3125 L 296.222656 494.535156 L 300.296875 490.457031 L 295.371094 487.457031 C 290.558594 495.34375 287.050781 503.808594 284.84375 512.851562 L 290.445312 514.214844 L 290.445312 508.453125 L 278.820312 508.453125 C 274.945312 508.453125 271.636719 509.820312 268.898438 512.554688 C 266.164062 515.289062 264.792969 518.59375 264.792969 522.464844 L 264.792969 529.171875 C 264.792969 529.550781 264.832031 529.925781 264.90625 530.296875 C 264.980469 530.667969 265.089844 531.027344 265.234375 531.375 C 265.378906 531.726562 265.554688 532.058594 265.765625 532.371094 C 265.976562 532.6875 266.214844 532.976562 266.484375 533.246094 C 266.75 533.511719 267.042969 533.75 267.355469 533.960938 C 267.671875 534.171875 268.003906 534.347656 268.355469 534.496094 C 268.703125 534.640625 269.066406 534.75 269.4375 534.820312 C 269.808594 534.894531 270.183594 534.933594 270.5625 534.933594 C 270.941406 534.933594 271.316406 534.894531 271.6875 534.820312 C 272.058594 534.75 272.417969 534.640625 272.769531 534.496094 C 273.117188 534.347656 273.449219 534.171875 273.765625 533.960938 C 274.078125 533.75 274.371094 533.511719 274.640625 533.246094 C 274.90625 532.976562 275.144531 532.6875 275.355469 532.371094 C 275.566406 532.058594 275.746094 531.726562 275.890625 531.375 C 276.035156 531.027344 276.144531 530.667969 276.21875 530.296875 C 276.292969 529.925781 276.328125 529.550781 276.328125 529.171875 L 276.328125 522.464844 C 276.328125 521.777344 276.570312 521.1875 277.054688 520.703125 C 277.539062 520.21875 278.128906 519.976562 278.820312 519.976562 L 290.445312 519.976562 C 291.089844 519.976562 291.71875 519.871094 292.328125 519.660156 C 292.941406 519.449219 293.5 519.144531 294.007812 518.746094 C 294.515625 518.347656 294.945312 517.878906 295.292969 517.335938 C 295.644531 516.792969 295.894531 516.207031 296.046875 515.582031 C 297.972656 507.695312 301.03125 500.320312 305.21875 493.453125 C 305.554688 492.902344 305.792969 492.308594 305.929688 491.679688 C 306.066406 491.046875 306.097656 490.410156 306.019531 489.769531 C 305.945312 489.125 305.761719 488.515625 305.480469 487.933594 C 305.195312 487.351562 304.824219 486.832031 304.367188 486.375 L 296.152344 478.191406 C 295.664062 477.703125 295.421875 477.113281 295.421875 476.421875 C 295.421875 475.742188 295.660156 475.164062 296.136719 474.6875 L 312.492188 458.347656 C 312.980469 457.859375 313.566406 457.617188 314.25 457.617188 C 314.921875 457.617188 315.503906 457.863281 315.992188 458.351562 L 324.226562 466.558594 C 324.683594 467.011719 325.203125 467.382812 325.785156 467.664062 C 326.367188 467.945312 326.976562 468.125 327.617188 468.199219 C 328.261719 468.277344 328.894531 468.246094 329.527344 468.109375 C 330.15625 467.96875 330.75 467.734375 331.300781 467.398438 C 338.175781 463.210938 345.554688 460.15625 353.449219 458.234375 C 354.074219 458.082031 354.660156 457.832031 355.203125 457.480469 C 355.746094 457.132812 356.21875 456.703125 356.617188 456.195312 C 357.015625 455.6875 357.320312 455.128906 357.53125 454.519531 C 357.742188 453.910156 357.847656 453.28125 357.847656 452.636719 L 357.847656 441.023438 C 357.847656 440.332031 358.089844 439.742188 358.578125 439.257812 C 359.058594 438.773438 359.636719 438.535156 360.316406 438.535156 L 383.453125 438.535156 C 384.132812 438.535156 384.710938 438.773438 385.195312 439.257812 C 385.679688 439.742188 385.921875 440.332031 385.921875 441.023438 L 385.921875 452.636719 C 385.921875 453.28125 386.027344 453.910156 386.238281 454.519531 C 386.449219 455.128906 386.753906 455.6875 387.152344 456.195312 C 387.550781 456.703125 388.023438 457.132812 388.566406 457.480469 C 389.109375 457.832031 389.695312 458.082031 390.320312 458.234375 C 398.214844 460.15625 405.597656 463.210938 412.46875 467.398438 C 413.019531 467.734375 413.613281 467.96875 414.242188 468.109375 C 414.875 468.246094 415.511719 468.273438 416.152344 468.199219 C 416.792969 468.125 417.40625 467.945312 417.984375 467.664062 C 418.566406 467.382812 419.085938 467.011719 419.542969 466.558594 L 427.785156 458.347656 C 428.273438 457.859375 428.855469 457.617188 429.53125 457.617188 C 430.207031 457.617188 430.789062 457.859375 431.277344 458.347656 L 447.648438 474.703125 C 448.125 475.175781 448.367188 475.75 448.367188 476.421875 C 448.367188 477.105469 448.121094 477.6875 447.632812 478.175781 L 439.421875 486.382812 C 438.964844 486.839844 438.59375 487.355469 438.3125 487.9375 C 438.027344 488.519531 437.847656 489.128906 437.773438 489.773438 C 437.695312 490.414062 437.726562 491.050781 437.863281 491.679688 C 438 492.3125 438.238281 492.902344 438.574219 493.453125 C 442.761719 500.320312 445.820312 507.695312 447.746094 515.582031 C 447.898438 516.207031 448.148438 516.792969 448.5 517.335938 C 448.847656 517.878906 449.277344 518.347656 449.785156 518.746094 C 450.292969 519.144531 450.851562 519.449219 451.464844 519.660156 C 452.074219 519.871094 452.703125 519.976562 453.347656 519.976562 L 464.972656 519.976562 C 465.652344 519.976562 466.234375 520.21875 466.714844 520.699219 C 467.199219 521.1875 467.441406 521.773438 467.441406 522.464844 L 467.441406 545.558594 C 467.441406 546.242188 467.203125 546.824219 466.722656 547.304688 C 466.242188 547.785156 465.660156 548.023438 464.972656 548.023438 L 453.347656 548.023438 C 452.703125 548.023438 452.074219 548.128906 451.464844 548.339844 C 450.851562 548.550781 450.292969 548.855469 449.785156 549.253906 C 449.277344 549.652344 448.847656 550.125 448.5 550.664062 C 448.148438 551.207031 447.898438 551.792969 447.746094 552.421875 C 445.824219 560.292969 442.765625 567.679688 438.570312 574.578125 C 438.234375 575.128906 438 575.71875 437.863281 576.351562 C 437.726562 576.980469 437.695312 577.617188 437.773438 578.257812 C 437.851562 578.898438 438.03125 579.507812 438.3125 580.085938 C 438.59375 580.667969 438.964844 581.1875 439.421875 581.640625 L 447.632812 589.847656 C 448.121094 590.335938 448.367188 590.917969 448.367188 591.601562 C 448.367188 592.273438 448.121094 592.851562 447.632812 593.335938 L 431.277344 609.675781 C 430.789062 610.164062 430.207031 610.410156 429.53125 610.410156 C 428.855469 610.410156 428.269531 610.164062 427.777344 609.671875 L 419.542969 601.464844 C 419.085938 601.011719 418.566406 600.640625 417.984375 600.359375 C 417.40625 600.078125 416.792969 599.902344 416.152344 599.824219 C 415.511719 599.75 414.875 599.777344 414.242188 599.917969 C 413.613281 600.054688 413.019531 600.289062 412.46875 600.625 C 405.597656 604.8125 398.214844 607.867188 390.320312 609.789062 C 389.695312 609.941406 389.109375 610.191406 388.566406 610.542969 C 388.023438 610.890625 387.550781 611.320312 387.152344 611.828125 C 386.753906 612.335938 386.449219 612.894531 386.238281 613.503906 C 386.027344 614.113281 385.921875 614.742188 385.921875 615.386719 L 385.921875 627 C 385.921875 627.679688 385.679688 628.261719 385.199219 628.742188 C 384.714844 629.226562 384.132812 629.46875 383.453125 629.46875 L 360.316406 629.46875 C 359.636719 629.46875 359.054688 629.226562 358.574219 628.742188 C 358.089844 628.261719 357.847656 627.679688 357.847656 627 L 357.847656 615.386719 C 357.847656 614.742188 357.742188 614.113281 357.53125 613.503906 C 357.320312 612.894531 357.015625 612.335938 356.617188 611.828125 C 356.21875 611.320312 355.746094 610.890625 355.203125 610.542969 C 354.660156 610.191406 354.074219 609.941406 353.449219 609.789062 C 345.554688 607.867188 338.175781 604.8125 331.300781 600.625 C 330.75 600.289062 330.15625 600.054688 329.527344 599.917969 C 328.894531 599.777344 328.261719 599.75 327.617188 599.824219 C 326.976562 599.902344 326.367188 600.078125 325.785156 600.359375 C 325.203125 600.640625 324.683594 601.011719 324.226562 601.464844 L 315.972656 609.691406 C 315.496094 610.167969 314.921875 610.410156 314.25 610.410156 C 313.566406 610.410156 312.980469 610.164062 312.492188 609.675781 L 296.136719 593.335938 C 295.660156 592.859375 295.421875 592.28125 295.421875 591.601562 C 295.421875 590.910156 295.660156 590.328125 296.132812 589.851562 L 300.28125 585.71875 C 300.550781 585.453125 300.789062 585.160156 301 584.847656 C 301.210938 584.53125 301.386719 584.203125 301.535156 583.851562 C 301.679688 583.503906 301.789062 583.140625 301.863281 582.773438 C 301.9375 582.402344 301.976562 582.027344 301.976562 581.648438 C 301.976562 581.269531 301.941406 580.894531 301.867188 580.523438 C 301.792969 580.152344 301.683594 579.792969 301.539062 579.441406 C 301.394531 579.09375 301.21875 578.761719 301.007812 578.445312 C 300.796875 578.128906 300.558594 577.839844 300.292969 577.570312 C 300.023438 577.304688 299.734375 577.0625 299.417969 576.855469 C 299.105469 576.644531 298.773438 576.464844 298.421875 576.320312 C 298.074219 576.175781 297.714844 576.066406 297.34375 575.992188 C 296.96875 575.917969 296.59375 575.878906 296.21875 575.878906 C 295.839844 575.878906 295.464844 575.914062 295.089844 575.988281 C 294.71875 576.0625 294.359375 576.167969 294.007812 576.3125 C 293.660156 576.457031 293.328125 576.636719 293.011719 576.84375 C 292.695312 577.054688 292.40625 577.292969 292.136719 577.558594 Z M 292.136719 577.558594 " fill-opacity="1" fill-rule="nonzero"/></g></svg>