<svg xmlns="http://www.w3.org/2000/svg" xmlns:xlink="http://www.w3.org/1999/xlink" width="1080" zoomAndPan="magnify" viewBox="0 0 810 809.999993" height="1080" preserveAspectRatio="xMidYMid meet" version="1.0"><defs><clipPath id="id1"><path d="M 148.84375 44 L 659 44 L 659 733 L 148.84375 733 Z M 148.84375 44 " clip-rule="nonzero"/></clipPath><clipPath id="id2"><path d="M 41 4.5 L 214.914062 4.5 L 214.914062 185.25 L 41 185.25 Z M 41 4.5 " clip-rule="nonzero"/></clipPath><clipPath id="id3"><path d="M 546.785156 667.035156 L 648 667.035156 L 648 795.285156 L 546.785156 795.285156 Z M 546.785156 667.035156 " clip-rule="nonzero"/></clipPath><clipPath id="id4"><path d="M 128 572 L 290 572 L 290 677.5625 L 128 677.5625 Z M 128 572 " clip-rule="nonzero"/></clipPath></defs><g clip-path="url(#id1)"><path fill="#9d9c9a" d="M 593.859375 367.769531 C 590.851562 344.199219 587.6875 320.46875 585.949219 296.894531 C 584.523438 276.488281 585.472656 179.347656 579.304688 134.578125 C 578.039062 125.875 576.613281 119.074219 574.714844 114.800781 C 573.609375 111.796875 572.183594 109.738281 570.761719 108.316406 C 570.917969 108.472656 571.078125 108.632812 571.078125 108.632812 C 571.078125 108.632812 569.179688 106.734375 567.914062 106.101562 C 564.75 104.519531 551.777344 102.621094 533.109375 101.671875 C 464.132812 97.875 308.78125 98.347656 288.058594 102.621094 C 279.832031 104.203125 234.429688 110.054688 216.710938 117.015625 C 211.964844 118.914062 208.800781 121.128906 207.058594 123.027344 C 206.269531 124.136719 205.476562 125.242188 205.160156 126.191406 C 203.265625 126.824219 200.574219 128.40625 199.46875 132.679688 C 199.308594 133.3125 199.152344 134.101562 199.152344 134.734375 L 198.835938 136.316406 C 196.460938 149.921875 196.460938 164.476562 196.460938 178.398438 C 196.460938 206.5625 195.355469 234.722656 196.460938 262.882812 C 199.46875 333.125 199.625 403.523438 204.371094 473.609375 C 205.003906 483.734375 203.738281 494.652344 202.949219 505.566406 C 202 517.589844 201.839844 529.613281 204.53125 540.6875 C 206.902344 550.023438 216.550781 557.140625 230.789062 560.78125 C 256.734375 567.265625 297.867188 564.101562 308.78125 563.152344 C 358.300781 558.722656 409.238281 559.199219 458.914062 561.730469 C 501.628906 563.945312 558.738281 570.429688 597.8125 550.972656 C 599.710938 550.023438 602.085938 547.964844 603.351562 544.011719 C 604.617188 540.53125 605.25 534.359375 605.566406 525.976562 C 606.671875 484.367188 596.074219 385.648438 593.859375 367.769531 Z M 589.585938 525.34375 C 589.429688 530.246094 588.796875 535.152344 588.480469 537.523438 C 551.777344 554.453125 499.253906 547.492188 459.863281 545.59375 C 409.398438 543.0625 357.667969 542.429688 307.359375 547.015625 C 297.234375 547.964844 258.949219 551.128906 234.902344 544.960938 C 230.472656 543.851562 226.675781 542.429688 223.828125 540.53125 C 222.089844 539.421875 220.824219 538.15625 220.347656 536.574219 C 217.976562 527.082031 218.449219 516.800781 219.242188 506.515625 C 220.03125 494.96875 221.296875 483.261719 220.507812 472.34375 C 215.917969 402.417969 215.761719 332.175781 212.753906 261.933594 C 211.488281 233.929688 212.753906 206.085938 212.753906 178.085938 C 212.753906 165.109375 212.597656 151.503906 214.8125 138.691406 L 215.128906 137.109375 C 217.183594 136.476562 218.925781 134.894531 219.875 132.996094 C 221.457031 132.203125 225.886719 130.464844 229.523438 129.355469 C 249.617188 123.820312 284.261719 119.390625 291.378906 117.964844 C 311.789062 113.851562 464.609375 113.535156 532.320312 117.332031 C 542.285156 117.808594 550.511719 118.441406 555.890625 119.230469 C 557.15625 119.390625 558.578125 119.707031 559.6875 119.863281 C 560.160156 120.972656 561.109375 123.34375 561.425781 125.402344 C 563.167969 132.519531 564.433594 142.804688 565.382812 154.828125 C 569.335938 203.554688 568.703125 279.808594 569.96875 297.527344 C 571.710938 321.417969 574.875 345.464844 577.878906 369.351562 C 580.09375 387.386719 590.695312 484.683594 589.585938 525.34375 Z M 658.085938 598.589844 C 658.085938 519.488281 651.601562 441.492188 646.539062 362.550781 C 644.007812 320.785156 643.53125 278.859375 641.632812 237.09375 C 640.683594 217.953125 648.121094 157.199219 647.488281 116.226562 C 647.328125 104.992188 646.539062 95.183594 644.957031 87.90625 C 643.691406 81.738281 641.632812 77.148438 639.261719 74.144531 C 635.304688 69.238281 628.820312 64.808594 619.804688 61.171875 C 608.253906 56.582031 592.75 53.101562 574.714844 50.570312 C 507.324219 41.238281 406.390625 45.191406 377.597656 46.773438 C 341.847656 48.671875 306.410156 56.742188 270.65625 58.796875 C 269.074219 58.957031 199.625 61.960938 170.515625 64.019531 C 164.347656 64.492188 159.917969 64.808594 158.019531 65.125 C 156.277344 65.441406 155.328125 65.757812 154.855469 66.074219 C 151.53125 67.816406 149.792969 71.453125 150.582031 75.09375 C 150.265625 75.566406 150.109375 76.042969 149.792969 76.515625 C 149.316406 77.625 148.84375 78.890625 148.84375 81.261719 C 148.84375 167.640625 153.113281 254.496094 153.113281 341.035156 C 153.113281 433.109375 159.125 524.394531 163.082031 616.152344 C 163.554688 627.699219 161.183594 645.261719 161.339844 661.082031 C 161.5 673.261719 163.082031 684.496094 167.667969 692.5625 C 172.730469 701.421875 184.28125 707.59375 199.46875 710.914062 C 228.890625 717.242188 272.554688 713.761719 289.957031 714.394531 C 338.207031 716.292969 425.375 729.898438 502.261719 731.957031 C 555.257812 733.378906 603.507812 729.265625 632.457031 713.289062 C 644.640625 706.644531 653.023438 694.144531 655.714844 680.699219 C 661.09375 654.277344 658.085938 625.328125 658.085938 598.589844 Z M 640.050781 677.535156 C 638.3125 686.550781 632.773438 694.777344 624.707031 699.207031 C 597.8125 714.238281 552.410156 717.242188 502.894531 715.820312 C 425.851562 713.605469 339 700 290.746094 698.257812 C 276.195312 697.785156 242.8125 700.15625 215.445312 696.992188 C 206.902344 696.042969 199.152344 694.460938 192.664062 692.089844 C 187.761719 690.191406 183.804688 687.976562 181.75 684.496094 C 178.269531 678.484375 177.476562 669.941406 177.476562 660.765625 C 177.320312 644.628906 179.691406 627.066406 179.21875 615.359375 C 175.261719 523.761719 169.25 432.632812 169.25 340.875 C 169.25 254.972656 164.980469 168.589844 164.980469 82.84375 C 165.613281 82.054688 165.929688 81.261719 166.246094 80.472656 C 167.828125 80.3125 169.726562 80.15625 171.625 79.996094 C 200.734375 78.097656 270.023438 74.933594 271.605469 74.777344 C 307.359375 72.71875 342.796875 64.652344 378.546875 62.59375 C 406.867188 61.011719 506.214844 56.898438 572.5 66.234375 C 588.953125 68.605469 603.191406 71.613281 613.792969 75.882812 C 619.644531 78.257812 624.074219 80.789062 626.605469 83.953125 C 627.871094 85.375 628.503906 87.90625 629.136719 91.070312 C 630.5625 97.558594 631.191406 106.417969 631.351562 116.382812 C 631.984375 157.675781 624.707031 218.585938 625.5 237.886719 C 627.398438 279.808594 627.871094 321.734375 630.5625 363.65625 C 635.464844 442.285156 641.949219 519.804688 641.949219 598.75 C 641.949219 624.21875 645.113281 652.222656 640.050781 677.535156 Z M 640.050781 677.535156 " fill-opacity="1" fill-rule="nonzero"/></g><g clip-path="url(#id2)"><path fill="#7451aa" d="M 214.285156 8.226562 C 214.914062 7.128906 214.523438 5.753906 213.460938 5.167969 C 212.402344 4.539062 211.027344 4.929688 210.402344 5.988281 C 207.261719 11.480469 204.355469 16.96875 200.863281 22.265625 C 199.761719 23.953125 198.78125 25.714844 197.917969 27.480469 C 196.664062 26.5 195.367188 25.792969 194.03125 25.363281 C 191.675781 24.617188 188.066406 24.382812 185.90625 25.914062 C 177.941406 31.597656 181.078125 40.894531 186.496094 43.441406 C 190.148438 45.128906 195.210938 44.34375 198.585938 36.855469 C 198.742188 36.539062 198.859375 36.1875 199.019531 35.875 C 201.804688 40.734375 203.648438 47.558594 204.355469 54.5 C 205.101562 61.640625 204.667969 68.972656 202.746094 74.582031 C 201.609375 77.953125 199.960938 80.660156 197.566406 82.148438 C 196.269531 82.972656 195.054688 83.324219 193.914062 83.285156 C 192.148438 83.207031 190.65625 82.148438 189.285156 80.738281 C 186.339844 77.640625 184.257812 72.699219 183.082031 68.738281 C 183.082031 67.402344 183.121094 66.148438 183.160156 65.011719 C 183.238281 62.855469 184.023438 58.03125 183.632812 54.421875 C 183.394531 52.34375 182.769531 50.617188 181.707031 49.558594 C 181.039062 48.894531 180.375 48.777344 179.824219 48.777344 C 179.273438 48.777344 178.726562 48.972656 178.253906 49.402344 C 177.941406 49.675781 177.625 50.109375 177.429688 50.777344 C 177.195312 51.558594 177.117188 53.050781 177.035156 53.835938 C 176.800781 57.636719 177.117188 61.519531 177.664062 65.324219 C 177.820312 66.421875 178.136719 67.796875 178.566406 69.363281 C 178.488281 77.167969 178.410156 87.757812 175.976562 96.503906 C 174.171875 102.894531 171.148438 108.347656 165.417969 110.386719 C 162.984375 111.289062 160.707031 111.050781 158.589844 109.992188 C 158.667969 109.445312 158.707031 108.894531 158.785156 108.347656 C 160.160156 94.425781 158.195312 78.226562 156.902344 69.640625 C 156.46875 66.738281 154.429688 56.539062 150.425781 51.246094 C 148.226562 48.34375 145.402344 46.855469 142.183594 47.558594 C 140.179688 47.992188 138.492188 49.636719 137.472656 52.5 C 135.707031 57.285156 135.707031 66.109375 137.277344 75.679688 C 139.277344 87.757812 143.832031 101.011719 150.109375 108.582031 C 151.289062 109.992188 152.503906 111.207031 153.761719 112.1875 C 152.703125 118.855469 150.660156 124.621094 146.8125 127.835938 C 143.4375 130.660156 139.710938 129.445312 136.214844 126.855469 C 137.238281 113.601562 134.175781 98.070312 132.449219 89.523438 C 131.859375 86.542969 129.269531 76.777344 125.695312 71.167969 C 123.734375 68.070312 121.261719 66.265625 118.90625 66.265625 C 117.886719 66.265625 116.945312 66.660156 116.160156 67.441406 C 115.414062 68.148438 114.746094 69.285156 114.234375 70.738281 C 112.742188 75.050781 112.390625 82.460938 112.351562 84.148438 C 112.117188 93.050781 114.550781 101.523438 117.925781 109.679688 C 119.691406 113.914062 125.070312 123.171875 131.464844 128.894531 C 130.5625 136.425781 128.167969 142.933594 122.515625 146.074219 C 119.847656 147.523438 117.21875 147.640625 114.785156 146.816406 C 114.824219 146.035156 114.863281 145.25 114.902344 144.425781 C 115.058594 136.191406 113.527344 127.011719 110.820312 119.914062 C 108.898438 114.855469 106.347656 110.894531 103.519531 108.816406 C 102.695312 108.1875 101.28125 107.328125 99.871094 106.972656 C 98.496094 106.582031 97.160156 106.660156 96.0625 107.289062 C 94.097656 108.425781 92.804688 110.777344 92.492188 114.070312 C 92.136719 117.953125 93.078125 123.367188 95.082031 128.816406 C 98.023438 136.972656 103.285156 145.289062 109.566406 149.289062 L 109.996094 149.5625 C 109.605469 152.425781 108.9375 155.015625 107.914062 157.132812 C 107.011719 159.015625 105.835938 160.464844 104.226562 161.25 C 102.890625 161.878906 101.753906 161.171875 100.574219 159.996094 C 97.75 157.25 95.199219 152.074219 92.609375 146.777344 C 89.3125 140.035156 86.015625 133.09375 82.636719 129.875 C 80.636719 127.953125 78.476562 127.171875 76.359375 127.601562 C 74.394531 127.992188 73.101562 128.738281 72.160156 129.835938 C 71.648438 118.816406 69.921875 107.914062 67.371094 98.070312 C 66.585938 95.011719 63.953125 85.050781 60.148438 79.679688 C 57.988281 76.621094 55.398438 75.050781 52.730469 75.402344 C 49.980469 75.796875 48.019531 77.914062 46.878906 81.128906 C 44.878906 86.777344 45.46875 96.109375 45.703125 99.207031 C 47.3125 119.011719 58.734375 136.191406 66.46875 154.074219 C 65.761719 158.503906 64.777344 162.816406 63.445312 166.9375 C 62.503906 169.917969 61.011719 172.9375 59.046875 175.09375 C 57.792969 176.464844 56.339844 177.523438 54.730469 177.761719 C 53.082031 178.035156 51.316406 177.484375 49.351562 175.996094 C 47.785156 174.78125 46.332031 173.839844 45.546875 171.957031 C 45.074219 170.820312 43.742188 170.269531 42.601562 170.777344 C 41.464844 171.25 40.914062 172.582031 41.425781 173.71875 C 42.5625 176.347656 44.40625 177.878906 46.644531 179.5625 C 49.824219 181.957031 52.769531 182.582031 55.4375 182.152344 C 57.910156 181.761719 60.148438 180.425781 62.03125 178.464844 C 64.582031 175.839844 66.546875 172.035156 67.761719 168.269531 C 68.46875 166.113281 69.097656 163.878906 69.605469 161.601562 C 71.414062 166.191406 73.140625 170.777344 74.90625 175.40625 C 75.691406 177.445312 76.4375 179.328125 77.066406 181.40625 C 77.222656 181.957031 77.378906 183.367188 77.457031 183.601562 C 77.96875 185.210938 79.339844 185.210938 79.695312 185.210938 C 79.890625 185.210938 81.890625 185.054688 81.890625 182.820312 C 81.890625 180.742188 80.949219 177.484375 79.695312 173.957031 C 78.007812 169.210938 75.730469 163.839844 75.023438 160.542969 C 74.003906 155.757812 73.414062 150.855469 73.257812 145.953125 C 73.140625 142.464844 73.179688 138.699219 74.316406 135.367188 C 74.945312 133.601562 75.335938 132.425781 77.222656 132.03125 C 77.808594 131.914062 78.320312 132.191406 78.910156 132.621094 C 79.851562 133.328125 80.792969 134.464844 81.695312 135.835938 C 84.914062 140.582031 88.054688 148.113281 91.3125 154.269531 C 93.707031 158.777344 96.257812 162.582031 98.886719 164.464844 C 101.242188 166.113281 103.636719 166.542969 106.1875 165.289062 C 108.621094 164.113281 110.546875 161.996094 111.957031 159.09375 C 113.019531 156.898438 113.765625 154.308594 114.273438 151.40625 C 117.609375 152.308594 121.144531 151.996094 124.714844 150.035156 C 130.917969 146.621094 134.214844 139.953125 135.628906 131.953125 C 140.296875 134.699219 145.242188 135.132812 149.71875 131.367188 C 153.917969 127.835938 156.507812 121.796875 157.882812 114.660156 C 160.707031 115.757812 163.769531 115.835938 166.949219 114.660156 C 173.976562 112.109375 178.058594 105.640625 180.296875 97.757812 C 181.902344 92.070312 182.53125 85.640625 182.808594 79.640625 C 183.75 81.246094 184.808594 82.738281 185.988281 83.992188 C 188.183594 86.34375 190.773438 87.796875 193.679688 87.953125 C 195.601562 88.070312 197.722656 87.523438 199.960938 86.148438 C 203.101562 84.1875 205.492188 80.699219 207.023438 76.226562 C 209.144531 70.070312 209.65625 62.03125 208.871094 54.226562 C 208.085938 46.382812 205.886719 38.734375 202.707031 33.363281 C 202.234375 32.578125 201.765625 31.875 201.253906 31.167969 C 202.234375 29.050781 203.335938 26.933594 204.628906 24.933594 C 208.125 19.363281 211.105469 13.792969 214.285156 8.226562 Z M 194.464844 34.972656 C 192.621094 39.050781 190.34375 40.265625 188.378906 39.324219 C 185.359375 37.914062 184.0625 32.734375 188.5 29.558594 C 188.929688 29.246094 189.558594 29.207031 190.148438 29.207031 C 191.011719 29.207031 191.914062 29.402344 192.621094 29.636719 C 193.796875 30.03125 194.894531 30.734375 195.917969 31.714844 C 195.445312 32.8125 194.976562 33.875 194.464844 34.972656 Z M 67.449219 145.328125 C 60.226562 130.308594 51.550781 115.484375 50.175781 98.738281 C 49.980469 96.34375 49.511719 89.757812 50.53125 84.699219 C 50.84375 83.246094 51.238281 81.914062 51.867188 80.933594 C 52.257812 80.34375 52.691406 79.875 53.355469 79.757812 C 54.023438 79.679688 54.574219 80.070312 55.125 80.582031 C 56.105469 81.484375 56.96875 82.816406 57.792969 84.34375 C 60.539062 89.484375 62.34375 96.621094 62.972656 99.050781 C 66.625 113.207031 68.625 129.71875 67.449219 145.328125 Z M 110.390625 144.191406 C 110.074219 143.953125 109.761719 143.679688 109.484375 143.40625 C 105.128906 139.445312 101.597656 133.25 99.398438 127.171875 C 97.671875 122.425781 96.769531 117.757812 97.082031 114.347656 C 97.199219 112.855469 97.476562 111.640625 98.300781 111.089844 C 98.417969 111.128906 98.847656 111.167969 99.085938 111.289062 C 99.789062 111.5625 100.496094 111.992188 100.929688 112.347656 C 103.207031 114.03125 105.128906 117.367188 106.660156 121.40625 C 109.09375 127.992188 110.546875 136.542969 110.390625 144.191406 Z M 131.898438 122.855469 C 127.226562 117.757812 123.5 111.167969 122.125 107.875 C 118.984375 100.304688 116.667969 92.464844 116.90625 84.1875 C 116.945312 82.855469 117.140625 77.71875 118.042969 73.835938 C 118.277344 72.933594 118.515625 72.070312 118.828125 71.402344 C 118.945312 71.167969 119.101562 70.933594 119.21875 70.777344 C 119.730469 70.894531 120.164062 71.324219 120.632812 71.875 C 121.574219 72.894531 122.4375 74.304688 123.222656 75.875 C 125.8125 81.089844 127.582031 88.03125 128.050781 90.382812 C 129.542969 97.875 132.171875 110.933594 131.898438 122.855469 Z M 154.429688 106.621094 C 154.152344 106.308594 153.839844 105.992188 153.566406 105.640625 C 147.675781 98.582031 143.59375 86.148438 141.710938 74.894531 C 140.453125 67.441406 140.21875 60.460938 141.160156 55.875 C 141.4375 54.578125 141.789062 53.519531 142.261719 52.738281 C 142.496094 52.34375 142.769531 52.03125 143.125 51.953125 C 144.027344 51.757812 144.773438 52.03125 145.480469 52.578125 C 146.5 53.363281 147.363281 54.617188 148.109375 56.03125 C 150.777344 60.972656 152.074219 68.070312 152.425781 70.265625 C 153.683594 78.34375 155.527344 93.40625 154.429688 106.621094 Z M 154.429688 106.621094 " fill-opacity="1" fill-rule="nonzero"/></g><g clip-path="url(#id3)"><path fill="#7451aa" d="M 646.289062 726.332031 C 646.289062 726.332031 643.402344 725.273438 641.976562 724.761719 C 635.582031 722.359375 628.820312 718.238281 623.484375 713.976562 C 618.769531 710.222656 613.617188 704.863281 611.203125 699.214844 C 608.246094 692.328125 603.859375 678.039062 603.859375 670.824219 C 603.859375 669.730469 603.128906 668.785156 602.105469 668.492188 C 601.921875 668.199219 601.628906 667.910156 601.300781 667.726562 C 600.132812 667.035156 598.632812 667.433594 597.9375 668.601562 C 597.023438 670.167969 596.695312 672.136719 596.695312 674.25 C 596.695312 676.730469 597.246094 679.460938 597.355469 681.464844 C 598.121094 692.253906 589.679688 702.132812 582.371094 709.09375 C 574.953125 716.164062 564.390625 722.796875 554.59375 725.820312 C 552.695312 726.402344 550.722656 727.097656 549.039062 728.117188 C 548.820312 728.226562 548.382812 728.445312 548.382812 728.445312 C 547.433594 728.882812 546.847656 729.867188 546.957031 730.886719 C 547.066406 731.941406 547.796875 732.78125 548.820312 733.035156 C 548.820312 733.035156 552.839844 734.019531 554.851562 734.421875 C 562.964844 736.023438 570.273438 739.378906 575.574219 745.863281 C 583.394531 755.488281 586.5 765.875 589.972656 777.535156 C 591.179688 781.652344 591.617188 785.992188 592.164062 790.21875 L 592.164062 792.804688 C 592.164062 794.117188 593.222656 795.210938 594.539062 795.246094 C 595.855469 795.285156 596.988281 794.265625 597.0625 792.953125 C 597.0625 792.953125 597.171875 791.09375 597.0625 790 C 597.0625 787.703125 597.136719 785.445312 597.28125 783.183594 C 598.046875 771.046875 603.457031 760.003906 611.316406 750.710938 C 618.84375 741.78125 629.84375 733.253906 641.683594 731.761719 C 643.109375 731.578125 645.921875 731.066406 645.921875 731.066406 C 647.019531 730.851562 647.824219 729.976562 647.933594 728.84375 C 647.96875 727.75 647.3125 726.695312 646.289062 726.332031 Z M 607.515625 747.542969 C 601.046875 755.195312 596.183594 763.90625 593.808594 773.382812 C 590.445312 762.191406 586.976562 752.132812 579.335938 742.765625 C 573.710938 735.84375 566.070312 731.980469 557.554688 730.011719 C 567.570312 726.621094 578.203125 719.84375 585.769531 712.628906 C 592.675781 706.066406 600.132812 697.027344 601.921875 687.117188 C 603.421875 692.472656 605.210938 697.648438 606.671875 701.109375 C 609.414062 707.453125 615.078125 713.539062 620.414062 717.765625 C 625.09375 721.484375 630.792969 725.128906 636.496094 727.714844 C 625.203125 730.667969 614.824219 738.867188 607.515625 747.542969 Z M 607.515625 747.542969 " fill-opacity="1" fill-rule="nonzero"/></g><g clip-path="url(#id4)"><path fill="#7451aa" d="M 207.589844 582.675781 C 207.074219 582.398438 206.355469 582.226562 205.390625 582.226562 C 204.085938 582.226562 202.089844 582.535156 199.652344 583.15625 C 195.113281 584.324219 188.789062 586.492188 182.394531 588.863281 C 181.535156 586.800781 180.675781 584.804688 179.816406 582.949219 C 177.71875 578.238281 175.757812 574.628906 174.488281 573.359375 C 173.523438 572.394531 171.394531 571.8125 169.882812 574.527344 C 168.539062 576.933594 166.273438 584.875 163.898438 590.582031 C 163.007812 592.746094 162.113281 594.914062 161.289062 597.046875 C 159.257812 597.835938 157.746094 598.421875 156.992188 598.695312 C 148.5 601.652344 139.527344 604.367188 131.210938 607.667969 C 130.660156 607.875 129.695312 608.320312 129.214844 608.734375 C 128.769531 609.113281 128.527344 609.523438 128.390625 609.9375 C 128.046875 610.867188 128.117188 611.792969 129.007812 612.722656 C 129.320312 613.03125 130.039062 613.476562 131.105469 613.582031 C 132.445312 613.71875 135.195312 613.410156 135.710938 613.410156 C 142.585938 613.410156 148.363281 613.925781 154.652344 616.023438 C 152.554688 622.761719 150.804688 629.601562 149.257812 636.71875 C 149.222656 636.960938 148.945312 638.058594 148.707031 639.226562 C 148.601562 639.332031 148.535156 639.46875 148.429688 639.640625 C 148.328125 639.8125 147.777344 641.257812 147.46875 642.324219 C 147.261719 643.042969 147.195312 643.664062 147.195312 643.9375 C 147.261719 644.867188 147.675781 645.382812 148.019531 645.691406 C 148.464844 646.105469 148.980469 646.308594 149.632812 646.308594 L 149.773438 646.308594 C 150.21875 646.824219 150.871094 647.136719 151.59375 647.136719 C 152.179688 647.136719 152.933594 646.964844 153.757812 646.550781 C 154.859375 645.964844 156.335938 644.796875 158.054688 643.183594 C 162.523438 638.851562 168.882812 631.011719 174.382812 624.171875 C 183.21875 628.125 192.363281 632.660156 198.414062 637.199219 C 198.34375 637.164062 198.242188 637.027344 198.242188 637.027344 C 198.242188 637.027344 199.308594 637.921875 199.996094 638.023438 C 200.40625 638.09375 200.992188 638.09375 201.78125 637.714844 C 202.917969 637.164062 203.226562 636.273438 203.089844 635.207031 C 203.054688 635 202.949219 634.140625 201.953125 633.488281 C 201.886719 633.417969 201.300781 633.144531 201.027344 633.003906 C 197.003906 627.46875 194.976562 619.667969 192.328125 613.445312 C 191.746094 612.101562 190.886719 609.902344 189.820312 607.222656 C 193.636719 603.886719 197.417969 600.484375 200.820312 596.769531 C 204.324219 592.917969 207.246094 589.414062 208.347656 587.488281 C 209.035156 586.285156 209.171875 585.320312 209.105469 584.773438 C 208.933594 583.742188 208.417969 583.085938 207.589844 582.675781 Z M 168.335938 592.4375 C 170.054688 588.3125 171.667969 582.984375 172.941406 579.582031 C 173.695312 581.023438 174.554688 582.882812 175.484375 584.945312 C 176.273438 586.695312 177.101562 588.585938 177.925781 590.546875 C 174.210938 591.957031 170.570312 593.402344 167.40625 594.636719 C 167.714844 593.917969 168.023438 593.160156 168.335938 592.4375 Z M 141.96875 608.800781 C 147.503906 606.878906 153.105469 605.125 158.539062 603.234375 C 158.675781 603.199219 158.847656 603.128906 159.019531 603.0625 C 158.023438 605.847656 157.023438 608.628906 156.132812 611.449219 C 151.351562 609.867188 146.816406 609.113281 141.96875 608.800781 Z M 158.089844 636.238281 C 156.304688 638.195312 154.6875 639.882812 153.3125 641.050781 C 153.65625 639.539062 153.898438 638.09375 153.964844 637.714844 C 155.445312 630.839844 157.164062 624.238281 159.15625 617.742188 C 162.386719 619.046875 166.066406 620.558594 169.914062 622.210938 C 165.996094 627.058594 161.734375 632.25 158.089844 636.238281 Z M 173.007812 618.324219 C 168.539062 616.402344 164.277344 614.648438 160.601562 613.132812 C 161.941406 609.007812 163.417969 604.882812 165 600.722656 C 168.988281 599.140625 174.28125 597.046875 179.746094 594.949219 C 181.257812 598.695312 182.773438 602.476562 184.078125 605.8125 C 183.320312 606.464844 182.566406 607.152344 181.808594 607.839844 C 180.46875 609.042969 177.101562 613.238281 173.007812 618.324219 Z M 192.878906 627.984375 C 188.132812 625.304688 182.773438 622.726562 177.476562 620.320312 C 180.984375 615.953125 183.804688 612.480469 185.007812 611.414062 L 185.96875 610.554688 C 186.757812 612.550781 187.414062 614.199219 187.894531 615.300781 C 189.578125 619.21875 191.054688 623.757812 192.878906 627.984375 Z M 197.246094 593.503906 C 194.355469 596.667969 191.160156 599.625 187.929688 602.476562 C 186.792969 599.554688 185.523438 596.390625 184.25 593.261719 C 188.273438 591.785156 192.261719 590.375 195.765625 589.242188 C 198.242188 588.449219 200.476562 587.832031 202.296875 587.417969 C 200.921875 589.171875 199.066406 591.476562 197.246094 593.503906 Z M 289.917969 637.371094 C 289.953125 636.546875 289.714844 635.652344 288.957031 634.65625 C 286.824219 631.800781 281.980469 630.050781 275.824219 629.363281 C 271.632812 628.878906 266.75 628.878906 261.9375 629.050781 C 260.976562 623.515625 260.082031 618.496094 259.257812 614.785156 C 258.636719 611.929688 258.019531 609.800781 257.46875 608.628906 C 256.917969 607.496094 256.265625 606.910156 255.75 606.671875 C 255.097656 606.363281 254.273438 606.222656 253.378906 606.773438 C 253.136719 606.910156 252.761719 607.1875 252.449219 607.632812 C 252.039062 608.183594 251.488281 609.25 251.417969 609.421875 C 249.941406 612.34375 248.636719 615.058594 246.640625 617.671875 C 243.410156 621.902344 240.523438 626.234375 237.808594 630.667969 C 233.511719 630.53125 220.6875 629.738281 215.875 631.21875 C 212.78125 632.144531 211.921875 634.140625 212.574219 636.066406 C 212.679688 636.339844 212.851562 636.71875 213.195312 637.132812 C 213.574219 637.578125 214.5 638.300781 215.773438 639.160156 C 218.796875 641.152344 224.296875 644.246094 228.765625 646.757812 C 227.152344 649.78125 225.535156 652.84375 223.886719 655.9375 C 220.136719 662.949219 216.976562 669.894531 216.460938 670.996094 L 216.425781 671.0625 C 216.390625 671.167969 216.355469 671.234375 216.324219 671.339844 C 216.289062 671.476562 216.253906 671.542969 216.21875 671.578125 C 216.183594 671.683594 216.839844 672.609375 217.699219 673.332031 C 217.148438 673.882812 216.976562 674.464844 216.941406 674.878906 C 216.871094 675.429688 217.011719 675.945312 217.320312 676.425781 C 217.527344 676.734375 218.042969 677.5625 219.589844 677.5625 C 220.171875 677.5625 220.722656 677.355469 221.136719 677.011719 C 222.886719 677.011719 224.023438 676.875 226.121094 675.980469 C 230.277344 674.191406 233.992188 671.820312 237.875 669.414062 C 242.515625 666.492188 247.15625 663.363281 251.933594 660.472656 C 253.449219 661.367188 254.996094 662.296875 256.472656 663.257812 C 260.460938 665.871094 263.621094 669.480469 267.507812 672.09375 L 267.816406 672.402344 C 267.917969 672.507812 267.988281 672.609375 268.089844 672.714844 C 269.328125 673.984375 270.53125 673.433594 270.566406 673.402344 C 271.082031 673.230469 271.496094 672.953125 271.769531 672.574219 C 272.042969 672.199219 272.285156 671.714844 272.285156 671.027344 C 272.285156 670.855469 272.285156 670.339844 271.804688 669.722656 C 271.769531 669.6875 271.632812 669.515625 271.425781 669.34375 L 271.460938 669.378906 C 271.011719 668.933594 270.601562 668.140625 270.1875 667.074219 C 269.328125 665.046875 268.539062 662.296875 267.714844 659.066406 C 267.265625 657.207031 266.785156 655.214844 266.371094 653.117188 C 273.660156 650.09375 282.253906 646.929688 287.652344 641.566406 C 288.886719 640.15625 289.886719 638.816406 289.917969 637.371094 Z M 216.871094 670.445312 C 217.628906 669.621094 218.453125 669.652344 218.902344 669.722656 C 218.144531 669.621094 217.386719 669.894531 216.871094 670.445312 Z M 220.964844 672.164062 C 220.996094 671.648438 220.824219 671.167969 220.550781 670.753906 C 220.824219 671.097656 221.03125 671.578125 220.996094 672.164062 Z M 250.492188 620.558594 C 252.003906 618.566406 253.207031 616.539062 254.308594 614.40625 C 254.789062 616.503906 255.339844 619.183594 255.886719 622.210938 C 256.300781 624.410156 256.714844 626.816406 257.160156 629.292969 C 252.074219 629.601562 247.328125 630.050781 243.683594 630.359375 C 245.816406 627.023438 248.050781 623.757812 250.492188 620.558594 Z M 220.652344 636.476562 C 220.105469 636.132812 219.519531 635.757812 218.96875 635.410156 C 219.105469 635.378906 219.210938 635.378906 219.3125 635.34375 C 223.714844 634.757812 230.621094 635.035156 235.089844 635.238281 C 233.714844 637.613281 232.375 640.054688 231.035156 642.460938 C 227.632812 640.570312 223.644531 638.300781 220.652344 636.476562 Z M 235.367188 665.289062 C 231.722656 667.589844 228.214844 669.824219 224.261719 671.542969 C 222.992188 672.09375 222.234375 672.164062 221.203125 672.199219 C 222.234375 669.964844 224.984375 664.085938 228.148438 658.171875 C 229.796875 655.109375 231.378906 652.085938 232.960938 649.09375 C 234.199219 649.816406 235.125 650.332031 235.539062 650.640625 C 239.285156 653.289062 243.273438 655.523438 247.261719 657.757812 C 243.238281 660.199219 239.285156 662.847656 235.367188 665.289062 Z M 251.902344 654.871094 C 247.292969 652.257812 242.621094 649.75 238.289062 646.6875 C 237.839844 646.378906 236.707031 645.726562 235.230469 644.867188 C 236.980469 641.667969 238.734375 638.472656 240.625 635.34375 C 244.40625 635.101562 250.972656 634.378906 257.984375 633.96875 C 258.914062 639.296875 259.875 644.867188 260.90625 650.09375 C 257.847656 651.535156 254.855469 653.152344 251.902344 654.871094 Z M 259.121094 659.167969 C 258.328125 658.652344 257.503906 658.136719 256.679688 657.621094 C 258.398438 656.660156 260.152344 655.765625 261.902344 654.90625 C 262.453125 657.519531 263.039062 659.957031 263.621094 662.160156 L 263.792969 662.8125 C 262.316406 661.539062 260.804688 660.269531 259.121094 659.167969 Z M 284.28125 638.023438 C 279.503906 642.769531 272.011719 645.554688 265.445312 648.199219 C 264.515625 643.527344 263.65625 638.539062 262.832031 633.761719 C 267.199219 633.625 271.527344 633.691406 275.34375 634.105469 C 277.820312 634.378906 280.019531 634.792969 281.839844 635.445312 C 283.148438 635.929688 284.246094 636.476562 284.96875 637.269531 C 284.761719 637.507812 284.453125 637.820312 284.28125 638.023438 Z M 284.28125 638.023438 " fill-opacity="1" fill-rule="nonzero"/></g></svg>